<svg xmlns="http://www.w3.org/2000/svg" viewBox="0 0 182.35 49.27"><defs><style>.cls-1{fill:#ff8552;}</style></defs><g id="Layer_2" data-name="Layer 2"><g id="Draw_Layer" data-name="Draw Layer"><path class="cls-1" d="M34.31,0a21.32,21.32,0,0,0-7.26,1.82,29.49,29.49,0,0,0-6.37,3.51,32.1,32.1,0,0,0-5.63,5.1c-1.59,1.87-3.13,3.78-4.53,5.8q-1.08,1.58-2.13,3.18c-.64,1-1.19,2-1.77,3S5.49,24.37,5,25.37,3.89,27.7,3.41,28.89c-.59,1.46-1.18,2.91-1.75,4.38A22.23,22.23,0,0,0,.5,37.57,30.94,30.94,0,0,0,0,42.46a26.29,26.29,0,0,0,.48,5.16,2.17,2.17,0,0,0,1,1.34,2.25,2.25,0,0,0,3.08-.8,2.45,2.45,0,0,0,.23-1.74c-.08-.4-.14-.79-.2-1.19a28,28,0,0,1,.09-5.64A24.33,24.33,0,0,1,6,34.42c.69-1.78,1.42-3.54,2.14-5.31.51-1.13,1.09-2.21,1.7-3.28s1.24-2.19,1.9-3.27A71.72,71.72,0,0,1,16,16.37c1-1.19,1.93-2.43,3-3.55a35.92,35.92,0,0,1,3.45-3.2,30.13,30.13,0,0,1,2.85-1.91c1-.58,2.12-1.13,3.22-1.63A27.28,27.28,0,0,1,33.26,4.6a16.57,16.57,0,0,1,3.15-.07A10.9,10.9,0,0,1,38.23,5l.33.13A9.39,9.39,0,0,1,40,6,9.7,9.7,0,0,1,41.19,7.2,12.51,12.51,0,0,1,42.3,9.06a24.72,24.72,0,0,1,1.25,5.31q.12,1,.27,2.07c.64,4.78,1.44,9.57,2.55,14.27.25,1.11.56,2.21.88,3.3A16.09,16.09,0,0,0,48,36c.22.52.45,1,.72,1.56.56,1.09,1.14,2.16,1.8,3.19a16,16,0,0,0,2.54,3A14.11,14.11,0,0,0,54.62,45a8.89,8.89,0,0,0,4.29,1.5A10.77,10.77,0,0,0,63.24,46a16,16,0,0,0,2.28-1,19.16,19.16,0,0,0,2.81-1.8c1.08-.8,2.16-1.6,3.2-2.44,1.86-1.52,3.59-3.16,5.36-4.78s3.53-3.29,5.27-5c3.83-3.66,7.73-7.25,11.9-10.53,1.83-1.34,3.72-2.58,5.65-3.79a44.69,44.69,0,0,1,5.85-3.08c1.17-.48,2.34-1,3.55-1.35a40.8,40.8,0,0,1,4.06-1,21.54,21.54,0,0,1,4.68-.11,8.32,8.32,0,0,1,1.14.32,12.92,12.92,0,0,1,1.87,1.1,9.62,9.62,0,0,1,1.3,1.33,51.07,51.07,0,0,1,3.69,6.15,22.22,22.22,0,0,0,2.27,3.33A24.22,24.22,0,0,0,130.39,26,19.87,19.87,0,0,0,139,31a27.66,27.66,0,0,0,7.53.82,49.09,49.09,0,0,0,14.38-3.12c1.17-.41,2.34-.87,3.47-1.37s2.18-1,3.22-1.54a17.43,17.43,0,0,0,3.14-2.11A5.43,5.43,0,0,0,172.63,20v-.19a28.46,28.46,0,0,1,2.82,1.78,15,15,0,0,1,1.8,1.77,6.47,6.47,0,0,1,.55.91l.06.23v.11l-.18.32a7.57,7.57,0,0,1-.76.74,20,20,0,0,1-3.28,1.71c-2.23.87-4.46,1.73-6.72,2.5-2.43.83-5.07,1.45-7.06,3.16a2.25,2.25,0,0,0,1.59,3.84A2.36,2.36,0,0,0,163,36.2a9.07,9.07,0,0,1,1.09-.63c.94-.37,1.89-.68,2.85-1,1.18-.4,2.36-.81,3.53-1.23l3.15-1.2a36.93,36.93,0,0,0,4.6-2A9.46,9.46,0,0,0,181.65,27a4.83,4.83,0,0,0,.47-1,4.31,4.31,0,0,0,.23-1.23,5.57,5.57,0,0,0-.1-1.29,8.81,8.81,0,0,0-.56-1.51,8.71,8.71,0,0,0-1.25-1.81,9.65,9.65,0,0,0-.94-1,16.8,16.8,0,0,0-2.88-2.23c-1-.61-2-1.23-3-1.75s-2.41-1-3.65-1.51c-1-.37-2-.71-3-1s-1.91-.51-2.86-.73a33.37,33.37,0,0,0-3.29-.6l-1.48-.17c-.36,0-.71,0-1.07,0a7.45,7.45,0,0,0-1.07.12,3,3,0,0,0-.77.29,2.25,2.25,0,0,0-1.12,1.95v.07a2.23,2.23,0,0,0,1.12,2,13.15,13.15,0,0,0,2.53.83l2.23.58c1.49.41,3,.87,4.41,1.41a12.73,12.73,0,0,1,2.08,1.14c.15.14.3.27.44.42-.05.1-.11.19-.17.29a7,7,0,0,1-.56.53,29.6,29.6,0,0,1-5.13,2.72c-1,.41-2,.79-3,1.15-1.2.42-2.43.77-3.65,1.14a45.24,45.24,0,0,1-6.81,1.51,33.08,33.08,0,0,1-6.6-.08,23.11,23.11,0,0,1-3.73-1,23.43,23.43,0,0,1-3.16-1.87,18,18,0,0,1-2.13-1.87c-.71-.79-1.38-1.61-2-2.44-.3-.43-.61-.86-.88-1.31s-.6-1.06-.89-1.6c-.52-1-1.09-2-1.68-3a20.85,20.85,0,0,0-3.29-4.41,12.35,12.35,0,0,0-3.85-2.38,8.29,8.29,0,0,0-2.24-.57c-.51-.07-1-.09-1.55-.12a18.42,18.42,0,0,0-3.48.18c-.72.09-1.42.2-2.13.33s-1.25.3-1.86.46A49.31,49.31,0,0,0,96.1,13.65,70.07,70.07,0,0,0,90,18c-1.87,1.51-3.68,3.06-5.47,4.66s-3.56,3.22-5.26,4.9c-.92.9-1.87,1.76-2.8,2.64S74.64,32,73.71,32.81c-1.89,1.74-3.77,3.48-5.76,5.1-.77.59-1.54,1.17-2.33,1.73a23.53,23.53,0,0,1-3.09,1.84,9.65,9.65,0,0,1-1.82.51,8.8,8.8,0,0,1-1.54,0,8.41,8.41,0,0,1-1.39-.38A6.79,6.79,0,0,1,57,41.2a18.89,18.89,0,0,1-2.17-2.12A30,30,0,0,1,52,33.82a60.47,60.47,0,0,1-2.07-8.18c-.57-2.75-1-5.53-1.44-8.3l-.3-2.22c-.16-1.28-.29-2.56-.55-3.82-.13-.59-.26-1.18-.41-1.77a18.73,18.73,0,0,0-1-2.72,11.68,11.68,0,0,0-1.57-2.46,10.2,10.2,0,0,0-3.64-3A13.88,13.88,0,0,0,38,.26,12.21,12.21,0,0,0,35.32,0l-1,0Zm143.51,24a.89.89,0,0,1,0,.22l0-.22Zm.11.11a.5.5,0,0,1,0,.12s0-.08,0-.12ZM68.4,37.56l-.37.28.37-.28ZM4.75,39.2a1.1,1.1,0,0,1,0,.18,1.1,1.1,0,0,0,0-.18Z"/></g></g></svg>