<svg xmlns="http://www.w3.org/2000/svg" viewBox="0 0 190.86 34.9"><defs><style>.cls-1{fill:#ff8552;}</style></defs><g id="Layer_2" data-name="Layer 2"><g id="Draw_Layer" data-name="Draw Layer"><path class="cls-1" d="M1.67.08a2.24,2.24,0,0,0-1.34,1A2.13,2.13,0,0,0,.1,2.85c.39,1,.8,2,1.1,3s.59,2.1.86,3.15a23.71,23.71,0,0,0,2.88,6.26,24,24,0,0,0,2.11,3,26.84,26.84,0,0,0,2.27,2.38,38.67,38.67,0,0,0,3.15,2.56c.91.7,1.83,1.37,2.8,2s2,1.19,3.1,1.72,1.94,1,2.93,1.44c2.25,1,4.57,1.95,6.9,2.77A86.09,86.09,0,0,0,42,34.19a59.7,59.7,0,0,0,14.26.52,56.19,56.19,0,0,0,13.93-2.79c2.22-.75,4.41-1.6,6.58-2.48,1.22-.5,2.43-1,3.63-1.54l3-1.36c4.31-1.92,8.54-4,12.76-6.14C99.05,19,102,17.6,105,16.29c1.55-.65,3.09-1.32,4.64-2,1.73-.67,3.45-1.34,5.2-2s3.25-1.12,4.89-1.64a65.2,65.2,0,0,1,9.86-2.26,55.19,55.19,0,0,1,12.84-.41A39.49,39.49,0,0,1,147,9a33.13,33.13,0,0,1,4.14,1.42q3.13,1.37,6.12,3c2.09,1.15,4.19,2.26,6.33,3.29a42.54,42.54,0,0,0,7,2.57,34.23,34.23,0,0,0,7,1.06c.89.05,1.78.07,2.68.05-1.23.49-2.42,1.07-3.59,1.66a43.22,43.22,0,0,0-4.27,2.49c-.72.47-1.41,1-2.07,1.53a8.31,8.31,0,0,0-2,1.91,2.25,2.25,0,0,0,3.8,2.39,8.65,8.65,0,0,1,1-.83,44.3,44.3,0,0,1,8.11-4.71c1-.41,2-.77,3.07-1.11a22.45,22.45,0,0,0,4.8-1.63A3.45,3.45,0,0,0,190.66,18a8,8,0,0,0-1.12-1.91,20.7,20.7,0,0,0-2.36-2.91c-.87-.84-1.79-1.62-2.73-2.39s-2-1.61-3-2.36S179.34,7,178.27,6.26s-1.92-1.12-2.89-1.64a63.64,63.64,0,0,0-6-2.81A5.76,5.76,0,0,0,167,1.39a2.73,2.73,0,0,0-1.79.79A2.33,2.33,0,0,0,164.83,5,4.81,4.81,0,0,0,166,6.19l1.46,1.1c1.6,1.17,3.3,2.19,4.89,3.38s3.2,2.3,4.78,3.48c.73.58,1.47,1.15,2.24,1.69l.09.07a34.41,34.41,0,0,1-4.19-.27,28.36,28.36,0,0,1-4.28-.92c-1.46-.45-2.9-.94-4.3-1.51-2.07-.94-4.09-2-6.07-3.07s-4.27-2.26-6.45-3.29a40.45,40.45,0,0,0-6.82-2.44,28.41,28.41,0,0,0-3.31-.63,35.73,35.73,0,0,0-3.87-.4A66.18,66.18,0,0,0,126,4.52a60,60,0,0,0-6.58,1.58c-2.27.69-4.52,1.47-6.76,2.25-2.66.92-5.25,2-7.83,3.17-4.2,1.77-8.32,3.7-12.41,5.72-2.07,1-4.15,2-6.23,3s-4.37,2-6.57,3l-2.57,1.16c-3,1.25-6.08,2.45-9.19,3.44A58.14,58.14,0,0,1,58.38,30a64,64,0,0,1-14,0c-3.42-.49-6.82-1.16-10.2-1.91a58.42,58.42,0,0,1-9.68-3.29C22.6,24,20.68,23,18.83,22a40.47,40.47,0,0,1-5-3.47A29.33,29.33,0,0,1,10,14.68c-.58-.82-1.1-1.69-1.61-2.56A29.58,29.58,0,0,1,6.9,9.32c-.48-1.26-.76-2.59-1.12-3.89A33.29,33.29,0,0,0,4.43,1.65,2.38,2.38,0,0,0,3.4.31,2.16,2.16,0,0,0,2.27,0a2.35,2.35,0,0,0-.6.08ZM105.29,11.32l-.34.15.34-.15Zm4.81,2.78-.36.16.36-.16Zm-86,10.57.29.12-.29-.12Z"/></g></g></svg>