<svg xmlns="http://www.w3.org/2000/svg" viewBox="0 0 175.21 86.82"><defs><style>.cls-1{fill:#ff8552;}</style></defs><g id="Layer_2" data-name="Layer 2"><g id="Draw_Layer" data-name="Draw Layer"><path class="cls-1" d="M162.28,0a14.57,14.57,0,0,0-2.69.54,20.88,20.88,0,0,0-8.14,4.67,20.55,20.55,0,0,0-3,3.53,17.42,17.42,0,0,0-1.56,3,31.15,31.15,0,0,0-1.34,3.72c-.14.51-.23,1.05-.35,1.57-.05.25-.08.51-.11.76-.07.45-.16.92-.19,1.37a23.76,23.76,0,0,0,.08,5.33,38.61,38.61,0,0,0,1.6,6.15c-.73.47-1.46.94-2.21,1.4a69.43,69.43,0,0,1-7.32,3.79l.13-.06c-1.3.55-2.6,1.09-3.94,1.55-1.61.55-3.24,1-4.88,1.45a75.52,75.52,0,0,1-8.8,1.71c-1,.09-2,.19-2.95.24-1.18.07-2.35.09-3.53.11-2.09,0-4.17-.07-6.26-.18-4.21-.22-8.42-.74-12.6-1.29C92,39,89.78,38.7,87.57,38.26c-2.46-.49-4.9-1.07-7.35-1.6s-4.71-1-7.07-1.51S68.21,34.3,65.72,34a55.33,55.33,0,0,0-7.17-.29c-1.2,0-2.42,0-3.62.18-1.45.14-2.89.33-4.33.54-1.21.17-2.41.45-3.6.72a26.92,26.92,0,0,0-3.15.91A73.61,73.61,0,0,0,36.57,39c-2.16,1.06-4.27,2.21-6.37,3.38a65.1,65.1,0,0,0-5.78,3.77A78.09,78.09,0,0,0,13.5,55.79c-1.38,1.45-2.68,3-3.95,4.52-1.43,1.75-2.87,3.53-4.16,5.38C4.26,67.33,3.19,69,2.22,70.78A16.09,16.09,0,0,0,0,77.17a2.25,2.25,0,0,0,2.25,2.25,2.28,2.28,0,0,0,1.59-.66,2.45,2.45,0,0,0,.66-1.59A13.45,13.45,0,0,1,5.14,75a21.16,21.16,0,0,1,1.23-2.42c.57-1,1.14-1.92,1.73-2.86,1.1-1.77,2.37-3.4,3.63-5q1.59-1.92,3.2-3.82c1.06-1.25,2.22-2.41,3.36-3.58s2.18-2.11,3.31-3.13,2.5-2.12,3.77-3.16a76.47,76.47,0,0,1,14.89-8.76c1.05-.42,2.1-.83,3.16-1.23A31.43,31.43,0,0,1,46.56,40c1.15-.3,2.29-.61,3.46-.82s2.15-.37,3.23-.53c1.24-.13,2.48-.23,3.73-.31,1-.06,2,0,3,0h.89a55.88,55.88,0,0,1,7.19.57c4.77.76,9.48,1.84,14.19,2.9,2.26.5,4.52,1,6.81,1.36,2.55.43,5.12.8,7.69,1.1s4.86.59,7.3.78,5,.31,7.54.35c1.16,0,2.35.06,3.51,0s2.58-.15,3.86-.27a70,70,0,0,0,7.61-1.21c1.08-.23,2.16-.49,3.23-.77s2.29-.58,3.4-1c2.54-.87,5-1.86,7.46-3A64.39,64.39,0,0,0,148.09,35l.39,1c.6,1.45,1.24,2.88,1.88,4.31q1.19,3,2.14,6c.65,2.07,1.1,4.2,1.56,6.32s.95,4.34,1.41,6.51c.2.93.41,1.87.6,2.8l-1.57-.11A20.18,20.18,0,0,0,150,62a4.15,4.15,0,0,0-2,.91,3.2,3.2,0,0,0-.89,1.46,3.91,3.91,0,0,0,0,2,5.4,5.4,0,0,0,.24.78,35.65,35.65,0,0,0,3.23,6.41c.58,1,1.14,1.92,1.71,2.88a31.86,31.86,0,0,1,1.68,3.16,27.81,27.81,0,0,1,1,3.13c.41,1.5.71,3.55,2.46,4a2.39,2.39,0,0,0,1.9-.24,3.51,3.51,0,0,0,1-1.06,5.13,5.13,0,0,0,.56-1.42c.13-.41.23-.83.32-1.25l.61-.85c.72-.87,1.48-1.72,2.28-2.53s1.71-1.69,2.57-2.52q2.55-2.46,5.15-4.86a14.07,14.07,0,0,0,2.88-3.37,3.56,3.56,0,0,0,.42-2.57c0-.12-.08-.25-.11-.37a2.24,2.24,0,0,0-.58-1,3.85,3.85,0,0,0-1.22-.93,12.41,12.41,0,0,0-4.54-1.06c-2.33-.24-4.67-.37-7-.46l-1,0c-.18-1-.41-2-.62-3-.48-2.29-1-4.59-1.48-6.88s-.95-4.65-1.66-6.9a67.16,67.16,0,0,0-2.61-7.2c-.4-.89-.79-1.77-1.18-2.66s-.83-2.09-1.21-3.15l.89-.64a56.87,56.87,0,0,0,5.74-4.74,64.71,64.71,0,0,0,4.92-5.29,49.13,49.13,0,0,0,4.45-6.18,13.88,13.88,0,0,0,.88-1.87,16.45,16.45,0,0,0,1-3.23,21.59,21.59,0,0,0,.34-3.11,9.89,9.89,0,0,0-.3-2.71,6.67,6.67,0,0,0-1.41-2.6A5.5,5.5,0,0,0,166.91.85a6.65,6.65,0,0,0-2.13-.69A10.47,10.47,0,0,0,163,0c-.25,0-.49,0-.74,0Zm1.51,4.51a8.7,8.7,0,0,1,.88.22l.38.23.25.24.11.19a7.85,7.85,0,0,1,.26,1,14.58,14.58,0,0,1-.09,2.56,14.18,14.18,0,0,1-.67,2.56c-.12.33-.26.65-.4,1l.14-.33c-.24.48-.47,1-.75,1.43s-.71,1.15-1.09,1.72c-.6.87-1.24,1.72-1.88,2.56s-1.45,1.71-2.2,2.54-1.56,1.78-2.42,2.6-1.71,1.67-2.63,2.43-1.75,1.44-2.64,2.14l-.57.41a31.91,31.91,0,0,1-1.09-4.41,24.82,24.82,0,0,1,0-4.31c.14-.83.29-1.64.47-2.46a19.08,19.08,0,0,1,.9-2.74l.44-1a14,14,0,0,1,1.61-2.64,19.09,19.09,0,0,1,2.76-2.78,21.31,21.31,0,0,1,3.77-2.22,16.81,16.81,0,0,1,3.1-.87,8.55,8.55,0,0,1,1.34,0ZM137.6,35.59l-.4.17.4-.17ZM151.46,65.1l0,.11s0-.07,0-.11Zm4.23,1.31,1.09.06c.22,2,.4,4.06.5,6.1.06,1.26.11,2.53.11,3.81-.31-.61-.64-1.21-1-1.79-.79-1.34-1.59-2.67-2.39-4a40,40,0,0,1-2.15-4.1,1.67,1.67,0,0,1-.08-.2c1.3-.06,2.6.06,3.91.13Zm6.13,7.1q-.12-3.41-.5-6.78c2.63.14,5.27.24,7.89.54l.83.16c-.73.8-1.55,1.52-2.35,2.25l-1.54,1.45-3.72,3.56-.57.54c0-.57,0-1.15,0-1.72Z"/></g></g></svg>