<svg xmlns="http://www.w3.org/2000/svg" viewBox="0 0 187.22 44.94"><defs><style>.cls-1{fill:#ff8552;}</style></defs><g id="Layer_2" data-name="Layer 2"><g id="Draw_Layer" data-name="Draw Layer"><path class="cls-1" d="M48.53,0c-1.23,0-2.47.09-3.69.23S42.2.53,40.9.79s-2.43.5-3.64.79a32.81,32.81,0,0,0-3.63,1.2c-1.18.43-2.34.91-3.48,1.43-2.23,1-4.45,2.12-6.57,3.36-1.11.65-2.18,1.32-3.26,2s-2.1,1.47-3.13,2.22-2,1.51-2.94,2.32c-.45.39-.92.76-1.35,1.17l-1.54,1.5c-.83.79-1.59,1.67-2.35,2.52s-1.67,1.95-2.44,3a27.87,27.87,0,0,0-2.08,3c-.59,1-1.2,2-1.71,3.09A28.38,28.38,0,0,0,.62,34.23,20.29,20.29,0,0,0,0,38.41a13.62,13.62,0,0,0,.59,3.85,2.28,2.28,0,0,0,2.77,1.57,2.27,2.27,0,0,0,1.57-2.77c-.13-.47-.25-.93-.34-1.41a11.14,11.14,0,0,1,0-2.31,29.27,29.27,0,0,1,.66-3,22.67,22.67,0,0,1,1-2.77c.61-1.27,1.27-2.51,2-3.74a31.28,31.28,0,0,1,2.17-3.18A52.87,52.87,0,0,1,14.49,20c.76-.75,1.53-1.49,2.34-2.19s1.54-1.29,2.32-1.92c1.08-.78,2.16-1.55,3.25-2.31s2.16-1.38,3.27-2a78.38,78.38,0,0,1,7-3.59c.77-.32,1.55-.64,2.34-.94.48-.17,1-.38,1.45-.53L38.35,6a40.32,40.32,0,0,1,5.44-1.1c1.37-.14,2.73-.28,4.11-.32.78,0,1.55,0,2.33,0s1.31.07,2,.12l1,.15a14.07,14.07,0,0,1,3.31.94,16.85,16.85,0,0,1,2.55,1.44l.66.49a24.46,24.46,0,0,1,2.65,2.64,23,23,0,0,1,2.71,4.35c.48,1.2.87,2.42,1.3,3.63s.83,2.37,1.24,3.55.77,2.29,1.13,3.43.65,2.11,1.06,3.12a45.55,45.55,0,0,0,3.42,6.89c.61,1,1.29,1.9,2,2.83a19.06,19.06,0,0,0,4,4.09,14.71,14.71,0,0,0,9.53,2.73,14.86,14.86,0,0,0,4.94-1.21A20.67,20.67,0,0,0,97.1,42c1.06-.69,2.07-1.42,3.08-2.17s2-1.52,2.94-2.34c1.81-1.59,3.59-3.22,5.26-5S111.49,29,113,27.31c1.69-1.91,3.39-3.81,5.15-5.65a61.06,61.06,0,0,1,5.51-5,43.32,43.32,0,0,1,3.66-2.53c1.33-.81,2.7-1.53,4.09-2.2,1-.39,1.95-.73,2.94-1a18.19,18.19,0,0,1,2.83-.57c.78-.08,1.55-.15,2.33-.16a16.81,16.81,0,0,1,2,.1c.56.11,1.12.24,1.67.4a9.54,9.54,0,0,1,1.39.49,19.85,19.85,0,0,1,2.7,1.42c.91.58,1.77,1.21,2.63,1.87s1.7,1.33,2.57,2a30.22,30.22,0,0,0,3,1.88,26,26,0,0,0,3.45,1.65,17,17,0,0,0,3.28,1,27.29,27.29,0,0,0,3.93.42,22.24,22.24,0,0,0,4.07-.29,29.55,29.55,0,0,0,6.52-1.77,21.14,21.14,0,0,0,3-1.37,5.76,5.76,0,0,0,1.54-1.21l.2.15.33.27c-1,.57-2.12,1.06-3.13,1.69A39.64,39.64,0,0,0,174.08,22a39.08,39.08,0,0,0-3.94,3.67,33.85,33.85,0,0,0-3.7,4.33,2.26,2.26,0,0,0,.8,3.08,2.3,2.3,0,0,0,3.09-.81c.06-.1.13-.2.2-.3.47-.57,1-1.13,1.46-1.67.65-.7,1.26-1.43,1.93-2.1a47.7,47.7,0,0,1,4-3.53c1-.68,2-1.32,3-1.95s1.92-1.07,2.88-1.57c.54-.29,1.06-.58,1.57-.9a4.85,4.85,0,0,0,1.55-1.54,2.84,2.84,0,0,0,.35-1.33,3.36,3.36,0,0,0-.41-1.49,11.06,11.06,0,0,0-3.14-3,41.74,41.74,0,0,0-6-3.64c-2.06-1.09-4.14-2.18-6.28-3.11-1.28-.56-2.56-1.1-3.86-1.63A14.43,14.43,0,0,0,166,4c-1.31-.38-3.09-.82-4.12.37a2.3,2.3,0,0,0-.58,1,2.37,2.37,0,0,0,.23,1.73,3.56,3.56,0,0,0,1.41,1.31c.3.19.6.38.91.56.62.37,1.27.7,1.91,1,1.38.71,2.79,1.34,4.2,2s2.76,1.25,4.14,1.86c.65.28,1.32.56,2,.88A34.21,34.21,0,0,1,172.32,16a33,33,0,0,1-3.69.75,23.71,23.71,0,0,1-4.69-.08,21.44,21.44,0,0,1-2.24-.53,15.4,15.4,0,0,1-1.68-.61c-.48-.22-1-.44-1.44-.68s-1.13-.64-1.68-1a28.17,28.17,0,0,1-2.88-2A49.13,49.13,0,0,0,148.45,8c-.5-.28-1-.52-1.57-.75A18.92,18.92,0,0,0,145,6.46a19.09,19.09,0,0,0-3.81-.78,15.82,15.82,0,0,0-3.44.06,27.51,27.51,0,0,0-3.93.64,29.77,29.77,0,0,0-6.84,2.75,39.08,39.08,0,0,0-6.25,4.17c-.93.74-1.84,1.5-2.71,2.29s-1.86,1.77-2.77,2.68c-3.34,3.4-6.34,7.1-9.57,10.59A70,70,0,0,1,97.77,36a29.6,29.6,0,0,1-5.55,3.49,15.54,15.54,0,0,1-3,.87,14.29,14.29,0,0,1-2.85,0,13.4,13.4,0,0,1-2.64-.72,13.29,13.29,0,0,1-2.06-1.22,20.35,20.35,0,0,1-2.82-2.9,31.46,31.46,0,0,1-2.22-3.28c-.73-1.32-1.41-2.65-2-4-.38-.93-.75-1.87-1.06-2.83-.38-1.17-.75-2.34-1.14-3.5-.75-2.22-1.55-4.43-2.32-6.65-.34-1-.71-2-1.14-3a17.94,17.94,0,0,0-1.82-3.11,23.26,23.26,0,0,0-3.52-4.09c-.59-.51-1.19-1-1.81-1.46a16.38,16.38,0,0,0-3.35-1.93A19.88,19.88,0,0,0,52.15.13C51.19.06,50.24,0,49.28,0Zm114.88,16.6.34.05-.34-.05Z"/></g></g></svg>