<svg xmlns="http://www.w3.org/2000/svg" viewBox="0 0 464.71 45.98"><defs><style>.cls-1{fill:#ff8552;}</style></defs><g id="Layer_2" data-name="Layer 2"><g id="Draw_Layer" data-name="Draw Layer"><path class="cls-1" d="M106.6,0a10.84,10.84,0,0,0-1.79.24,12.45,12.45,0,0,0-1.87.54,17.81,17.81,0,0,0-3.59,1.82A19,19,0,0,0,93.4,8.69L93,9.45c-.18.44-.37.88-.56,1.33a15.93,15.93,0,0,0-.56,2.16,17.48,17.48,0,0,0-.23,1.77c0,.17,0,.35,0,.53.06.39.11.78.17,1.18a9,9,0,0,0,.34,1.12l-.49.22-2.41,1c-1,.41-2,.77-3,1.15-2,.77-4.11,1.4-6.17,2s-4.23,1.21-6.35,1.81-4.15,1-6.22,1.54c-3.87.92-7.77,1.78-11.69,2.45-4.24.73-8.5,1.37-12.76,2A125.1,125.1,0,0,1,30.37,31c-2.35.06-4.69.08-7,0-1.1,0-2.19-.09-3.28-.16s-1.94-.18-2.91-.29L15.2,30.2a23.81,23.81,0,0,1-5.1-1.47,20.72,20.72,0,0,1-3.33-1.92A11.89,11.89,0,0,1,5.19,25.3a4.77,4.77,0,0,1-.42-.73c-.12-.28-.23-.56-.33-.85a2.4,2.4,0,0,0-1-1.34,2.23,2.23,0,0,0-1.73-.23,2.27,2.27,0,0,0-1.35,1A2.14,2.14,0,0,0,.1,24.92c.28.73.58,1.46.91,2.17a8,8,0,0,0,1,1.47,8.76,8.76,0,0,0,1,1,19.1,19.1,0,0,0,3.38,2.35c3.52,2,7.52,2.74,11.48,3.18a87.65,87.65,0,0,0,14.58.23c5-.28,10-1,15-1.71,2.33-.34,4.65-.71,7-1.08s4.53-.75,6.76-1.23c4.73-1,9.48-2,14.15-3.34,2.53-.71,5.06-1.42,7.57-2.21s4.76-1.63,7.11-2.52c1.06-.41,2.1-.87,3.14-1.31l1.36-.58.35.38a11,11,0,0,0,2,1.58,10.82,10.82,0,0,0,1.87.92c.61.26,1.22.48,1.86.7a23.44,23.44,0,0,0,4.38.95c1.25.16,2.49.32,3.74.41s2.65.14,4,.17c.45,0,.89,0,1.34,0,.63,0,1.27,0,1.9-.06,1.15-.09,2.3-.16,3.44-.3,1.44-.18,2.87-.36,4.3-.6,2.47-.41,4.91-.9,7.35-1.42,1.09-.22,2.17-.51,3.25-.77,1.32-.31,2.64-.63,4-1,2.32-.59,4.64-1.15,6.94-1.79,2.84-.78,5.68-1.56,8.51-2.37s5.59-1.71,8.36-2.66c5.62-1.91,11.16-4.2,17.05-5.12a17.46,17.46,0,0,1,3.15,0,15.23,15.23,0,0,1,2.66.75c1.3.66,2.52,1.48,3.76,2.24,1,.62,2,1.21,3.05,1.8a53.61,53.61,0,0,0,6.4,3.28c2.21.91,4.44,1.73,6.69,2.53s4.27,1.42,6.37,2.22a84.21,84.21,0,0,0,13.67,4.35,53.61,53.61,0,0,0,7.37.82,36.06,36.06,0,0,0,9.83-.81,63.28,63.28,0,0,0,8.78-2.94q4.53-1.77,9.1-3.47c1.49-.56,3-1,4.54-1.48s2.86-.86,4.31-1.23,3.16-.78,4.75-1.13,3-.55,4.53-.79c3.24-.42,6.49-.79,9.77-.89,2-.06,4-.09,6,0,1.82,0,3.61.22,5.41.42,4.3.62,8.57,1.38,12.81,2.34l3.74.87c1,.24,2,.48,3,.79s2.26.71,3.38,1.11,2,.75,2.94,1.13c1.26.57,2.52,1.13,3.73,1.78a44.05,44.05,0,0,1,5.36,3.23,20.13,20.13,0,0,1,2.09,2c.19.26.35.52.51.79-.66.26-1.32.55-2,.83l-1.82.78a27,27,0,0,0-4.72,2.65,18.38,18.38,0,0,0-2.86,2.5,15.66,15.66,0,0,0-1.33,1.71,7.74,7.74,0,0,0-.79,1.79c0,.17,0,.34-.09.52a4.2,4.2,0,0,0-.07,1.12l.08.6a10,10,0,0,0,.48,1.29l.35.46a2.69,2.69,0,0,0,.85.83,4.68,4.68,0,0,0,1,.48,7.63,7.63,0,0,0,1.28.25,10.58,10.58,0,0,0,2,.08,16.25,16.25,0,0,0,1.69-.21,12.52,12.52,0,0,0,3.38-1A16.61,16.61,0,0,0,337.17,43c.58-.41,1.12-.88,1.65-1.34a12.51,12.51,0,0,0,1.86-2.24,7.86,7.86,0,0,0,.92-1.86,13.17,13.17,0,0,0,.58-2,10.28,10.28,0,0,0,.15-2.54h0c1-.27,2-.51,3-.74s1.88-.36,2.82-.52,2.06-.24,3.09-.32,2.33-.12,3.49-.16,2.45,0,3.66.11,2.14.17,3.22.28,2.07.32,3.11.53c1.23.25,2.46.51,3.67.81,2.4.6,4.78,1.27,7.17,1.85C380.37,36,385.14,37.26,390,38c2.67.44,5.34.83,8,1.19,2.4.31,4.81.51,7.23.7,1,.08,2.09.1,3.14.14s2.3.06,3.44,0,2.52-.07,3.78-.17c1.45-.12,2.88-.27,4.32-.44a66.74,66.74,0,0,0,8.52-1.65,83.43,83.43,0,0,0,8.19-2.4c1.45-.54,2.89-1.09,4.33-1.67s3.09-1.31,4.63-2c1.29-.58,2.57-1.18,3.85-1.77s2.68-1.15,4-1.72c3.2-1.33,6.39-2.67,9.6-4a2.46,2.46,0,0,0,1.34-1,2.24,2.24,0,0,0-.81-3.08,2.15,2.15,0,0,0-1.73-.23c-3.42,1.41-6.83,2.82-10.23,4.26-1.78.76-3.56,1.5-5.32,2.3s-3.52,1.6-5.29,2.4a89,89,0,0,1-9.94,3.56c-1.73.47-3.47,1-5.23,1.38-1,.21-1.93.47-2.89.63l-2.79.47-2.64.32c-.49,0-1,.08-1.49.12s-1.05.1-1.57.12c-2.05.06-4.11.13-6.16,0l-3-.13c-1,0-2.07-.16-3.1-.24-2-.16-4-.45-6-.71l.43,0c-2.38-.34-4.76-.69-7.12-1.13s-5-1-7.44-1.61c-4.87-1.14-9.69-2.5-14.57-3.61A61.43,61.43,0,0,0,360,27a56.28,56.28,0,0,0-7.46-.15,55.23,55.23,0,0,0-7.58.92c-1,.17-2,.43-3,.68l-.75.19-.34-.69a9.12,9.12,0,0,0-1.17-1.67A21.72,21.72,0,0,0,337.41,24a29.5,29.5,0,0,0-4.48-2.93c-1.17-.67-2.39-1.27-3.6-1.87a65.53,65.53,0,0,0-6.9-2.8,62.75,62.75,0,0,0-6.9-1.88q-3.45-.82-6.93-1.49a93.61,93.61,0,0,0-14.72-1.95,91.84,91.84,0,0,0-14.45.74c-2.46.33-4.94.66-7.37,1.19s-4.67,1.08-7,1.76-4.77,1.43-7.1,2.31-4.62,1.76-6.93,2.64c-1.87.7-3.71,1.48-5.6,2.12-1.06.37-2.11.7-3.19,1a29.69,29.69,0,0,1-3.63.79,48.31,48.31,0,0,1-10.2-.08c-1.21-.18-2.41-.39-3.61-.62s-2.6-.68-3.88-1.06-2.51-.84-3.76-1.26-2.5-.92-3.74-1.39c-2.42-.92-4.87-1.74-7.32-2.59-2.25-.78-4.49-1.62-6.7-2.52-1-.48-2-1-3-1.49s-1.92-1.1-2.88-1.66-2.15-1.25-3.21-1.91l-1.41-.88c-.36-.23-.73-.46-1.11-.67a12.94,12.94,0,0,0-2.52-1.06c-3.52-1.22-7.38-.56-10.9.32-2.39.6-4.74,1.34-7.07,2.13s-4.48,1.61-6.73,2.38-4.69,1.55-7.06,2.25c-4.63,1.39-9.31,2.62-14,3.83-3.11.8-6.23,1.56-9.36,2.3-3,.71-6,1.22-9,1.72-1.13.14-2.25.28-3.39.36-.65.06-1.3.14-2,.16l-2.44.07c-1.24,0-2.49,0-3.73-.12-.69,0-1.41-.06-2.1-.15l-2-.26a27.71,27.71,0,0,1-4.89-1.28A14.48,14.48,0,0,1,99,19.28c1.49-.74,3-1.49,4.44-2.28a29.26,29.26,0,0,0,5-3.53,19.6,19.6,0,0,0,3.44-3.55c.29-.43.57-.85.83-1.29a7.13,7.13,0,0,0,.75-1.83,6.11,6.11,0,0,0,.1-1.76c0-.2-.06-.4-.08-.6a7.16,7.16,0,0,0-.41-1.09A9.35,9.35,0,0,0,112,1.92,6.56,6.56,0,0,0,110.8,1a7.12,7.12,0,0,0-1.55-.67A5.32,5.32,0,0,0,108.06.1,6,6,0,0,0,107,0Zm1.06,4.55a4.5,4.5,0,0,1,.6.17,4.25,4.25,0,0,1,.46.27,2.09,2.09,0,0,1,.22.2l.16.26c0,.1,0,.21,0,.32L109,6c-.29.53-.6,1-.94,1.52A24.26,24.26,0,0,1,104.45,11a35.88,35.88,0,0,1-4.33,2.69c-1,.54-2.05,1.05-3.07,1.57l-.82.4-.06-.25a7.37,7.37,0,0,1,0-1.05A16.42,16.42,0,0,1,96.77,12c-.08.18-.15.36-.22.54A9.54,9.54,0,0,1,97.28,11a9.15,9.15,0,0,1,.78-1.17,21,21,0,0,1,2.67-2.67,21.2,21.2,0,0,1,3.14-1.88,15.58,15.58,0,0,1,2.42-.7,8.93,8.93,0,0,1,1.37,0Zm.79.24.07,0h0l-.08,0Zm.08,0,.09,0-.09,0Zm-4.21,6.25-.27.21.27-.21Zm-12.2,6.48-.32.14.32-.14ZM4.59,24.17c0,.1.09.21.13.31,0-.1-.09-.2-.13-.31ZM454,28.09l-.4.17.4-.17ZM337.8,34.55v0a14.84,14.84,0,0,1-.44,1.58,12.54,12.54,0,0,1-.83,1.42,15.4,15.4,0,0,1-1.76,1.67,16.61,16.61,0,0,1-2.42,1.47,14.83,14.83,0,0,1-2.71.72,14.53,14.53,0,0,1-1.75,0l-.12,0s0-.09,0-.14a6.53,6.53,0,0,1,.46-.77,17.69,17.69,0,0,1,2.13-2.11,30.17,30.17,0,0,1,5-2.85c.55-.25,1.11-.48,1.67-.72l.76-.29Zm-9.27,5.62-.11.15.11-.15Zm-.56.71c0,.1-.08.21-.13.31l.13-.31Zm-.07.58.59.08-.59-.08Zm-.21.3,0,.28c0-.09,0-.19,0-.28Z"/></g></g></svg>