<svg xmlns="http://www.w3.org/2000/svg" viewBox="0 0 202.19 65.73"><defs><style>.cls-1{fill:#ff8552;}</style></defs><g id="Layer_2" data-name="Layer 2"><g id="Draw_Layer" data-name="Draw Layer"><path class="cls-1" d="M128.87.06c-.25,0-.51.05-.76.07s-.59,0-.88.09a16,16,0,0,0-1.93.37c-.32.09-.65.2-1,.31l-.75.25-.25.1-.66.26c-.46.19-.91.4-1.35.62a5,5,0,0,0-.6.33,13.62,13.62,0,0,0-1.3.83c-.29.23-.57.47-.85.71s-.58.54-.86.82a9.12,9.12,0,0,0-2,3c-.12.27-.22.56-.32.84s-.16.59-.23.88a11.32,11.32,0,0,0-.21,1.64,14.92,14.92,0,0,0,.2,2.83c0,.26.1.52.16.78s.1.48.16.71c.13.51.27,1,.43,1.52.31,1,.66,1.9,1,2.86.12.34.23.67.33,1s.19.63.27,1,.15.66.22,1,.11.72.16,1.08c0,0,0-.08,0-.13,0,.43.09.86.11,1.29,0,.23,0,.46,0,.69s0,.54,0,.8c0,.86,0,1.73-.09,2.59s-.11,2-.19,2.95-.17,1.82-.27,2.72-.2,1.54-.35,2.31-.29,1.54-.48,2.31c-.1.36-.18.73-.29,1.09s-.27.91-.41,1.36-.29.87-.44,1.31-.26.68-.39,1-.26.58-.4.86-.15.28-.22.43l-.23.43c-.31.58-.66,1.15-1,1.72s-.72,1.15-1.09,1.72c-.19.3-.4.58-.6.86s-.42.55-.63.82L111,51c-.29.34-.57.68-.87,1l-.47.52c-.17.2-.36.39-.55.58a23.79,23.79,0,0,1-2,1.78l-1,.73c-.11.09-.24.17-.35.25l-.75.5c-.3.22-.62.4-.94.6s-.7.44-1.06.64l-1.31.72-.46.23-1,.49c-.75.37-1.52.69-2.28,1l-1.67.66c-.54.21-1.08.4-1.62.6l-3.36,1.23-.66.22-1.25.41-.81.26a5.87,5.87,0,0,1-.6.16l-1.31.32a5.87,5.87,0,0,1-.6.16l-1.9.35-1.16.14c-.33,0-.66.06-1,.09s-.65,0-1,0l-1.36,0h-2c-.79,0-1.58,0-2.37-.09-1.53-.08-3.06-.15-4.59-.29-.75-.07-1.51-.12-2.26-.21L66,63.82l-2.77-.46-.86-.18c-.61-.13-1.21-.28-1.81-.44a29.43,29.43,0,0,1-3.81-1.29c-.82-.37-1.63-.76-2.43-1.19-.64-.35-1.27-.73-1.9-1.11l-2.57-1.56c-.53-.32-1-.67-1.56-1l-2.15-1.44L43.39,53c-.27-.21-.52-.45-.78-.67l-1.7-1.49c-.81-.71-1.58-1.45-2.36-2.18L36.21,46.5c-.31-.29-.64-.56-1-.83-.51-.44-1-.85-1.59-1.24a20.05,20.05,0,0,0-4-2.18c-.57-.25-1.18-.45-1.77-.67a27.55,27.55,0,0,0-3.34-.93,17.41,17.41,0,0,0-2-.3,11.65,11.65,0,0,0-2.21,0c-.76.09-1.52.25-2.27.4l-.48.12-1,.28c-.54.14-1.07.34-1.59.51s-.91.32-1.36.49a17.47,17.47,0,0,0-2.45,1.22,18.45,18.45,0,0,0-2.05,1.49c-.29.24-.57.5-.85.75-.49.43-.95.88-1.42,1.32s-.95,1-1.4,1.47A16.09,16.09,0,0,0,4.27,50l-.63.92c-.44.66-.86,1.33-1.24,2a18,18,0,0,0-1.18,3.12c-.1.3-.17.6-.25.89l-.24.87c-.24.87-.47,1.74-.71,2.61A.49.49,0,0,0,.37,61,.49.49,0,0,0,1,60.7c.28-1,.56-2.07.85-3.11.13-.46.25-.93.39-1.39.23-.72.45-1.44.74-2.14a19.58,19.58,0,0,1,1.6-2.72L5,50.63c.21-.3.42-.6.64-.89v0l0,0,0-.06s0,0,0,0c.29-.37.6-.73.92-1.08s.51-.55.78-.81l1-.94.69-.62c.4-.36.81-.7,1.23-1l0,0,0,0,0,0,0,0c.43-.33.87-.63,1.33-.92a15,15,0,0,1,1.91-1c.44-.18.88-.36,1.34-.51l.83-.28c.4-.13.81-.26,1.22-.37s.59-.16.88-.24a4.05,4.05,0,0,1,.47-.12l1-.2c.37-.08.74-.14,1.12-.19l-.14,0c.24,0,.48-.06.72-.07h.74a10.24,10.24,0,0,1,1.36.1c.76.11,1.5.27,2.24.45l1.06.29.8.25c.65.23,1.31.46,2,.72s1.41.64,2.1,1a19.6,19.6,0,0,1,2.39,1.56h0l.06,0-.05,0c.7.56,1.39,1.14,2.05,1.75L37.42,49l2.38,2.2.72.64c.58.51,1.15,1,1.74,1.52.22.2.44.38.67.57l1.88,1.46.63.48a2,2,0,0,0,.23.18l1.63,1.09,1.58,1c.34.23.69.43,1,.64,1.49.9,3,1.84,4.52,2.65A27.61,27.61,0,0,0,58.15,63a36,36,0,0,0,4.69,1.26l.5.08,1.08.18c.51.09,1,.19,1.54.25l1.77.22,1.3.15,2,.19,1.4.09c1.15.08,2.3.14,3.45.2s2.06.07,3.1.07c.47,0,.93,0,1.4,0l.87,0,.79,0,.77-.06.73-.09.74-.09c.28,0,.55-.09.83-.14.48-.09,1-.16,1.45-.28l2.13-.54c.4-.11.78-.25,1.17-.37l1.73-.57.51-.19,1.06-.39c.44-.16.88-.31,1.31-.48l1.8-.65c.54-.2,1.08-.43,1.61-.64.38-.15.75-.31,1.12-.48s1-.44,1.54-.68l1.67-.82.5-.28,1.06-.58.39-.24.9-.56c.46-.28.91-.6,1.36-.91s.8-.59,1.2-.88.76-.64,1.14-.95c.22-.19.42-.39.62-.58l.42-.41.55-.58c.23-.24.44-.49.66-.74s.58-.68.85-1,.35-.45.53-.68.39-.55.58-.82.5-.78.75-1.18l.86-1.45c.25-.42.48-.85.71-1.29.1-.18.2-.37.29-.57s.28-.57.4-.87.21-.53.31-.8.15-.42.23-.63c.17-.5.34-1,.49-1.51s.31-1.07.45-1.61.24-1,.36-1.53c.06-.28.1-.56.16-.83s.07-.39.1-.59c.1-.62.19-1.23.27-1.85.14-1,.24-2.07.33-3.11s.15-2.09.2-3.14c0-.7.06-1.41.08-2.12,0-.35,0-.7,0-1s0-.68,0-1-.06-.65-.09-1-.1-.69-.14-1-.13-.6-.18-.9-.09-.32-.13-.49l-.12-.47c-.22-.7-.45-1.39-.69-2.08s-.43-1.18-.62-1.77-.41-1.35-.58-2c-.09-.36-.16-.72-.23-1.08s-.11-.73-.16-1.09c0,0,0,.08,0,.13,0-.41-.07-.81-.08-1.22a10,10,0,0,1,.09-1.45,10.62,10.62,0,0,1,.24-1.12,10.82,10.82,0,0,1,.38-1.09c.11-.24.23-.49.35-.73a9.22,9.22,0,0,1,.63-1A13.78,13.78,0,0,1,120,4.14l0,0,0,0,.06,0,0,0a11,11,0,0,1,1-.67l.66-.36c.35-.2.72-.36,1.09-.53s1-.4,1.5-.57c.35-.12.69-.24,1-.34a15.22,15.22,0,0,1,2.21-.46l-.13,0c.31,0,.63-.05.94-.09l.69-.05L130.18,1a13.88,13.88,0,0,1,2.23.1,21.54,21.54,0,0,1,2.12.44c.43.1.86.23,1.28.35a5.6,5.6,0,0,1,.66.21l1.07.39,1.23.55.44.23.72.38c.14.07.26.16.4.24l.64.39c.15.09.28.19.42.29l.54.37c.27.2.54.4.8.62l1.13,1A26.49,26.49,0,0,1,146,8.84a11.16,11.16,0,0,1,1.25,2.24,20,20,0,0,1,1.16,4.27c.07.59.16,1.18.21,1.78s.11,1.34.16,2l.12,2.07c0,.55.06,1.11.12,1.66s.12,1.29.2,1.94c0,.27.06.54.1.8l.2,1.25c.09.59.2,1.18.3,1.77s.17,1.17.25,1.75v0l.45,3.33c.15,1,.31,2,.48,3a17,17,0,0,0,.84,3.21c.24.63.46,1.27.71,1.9s.44,1,.7,1.56a15,15,0,0,0,1,1.72c.39.59.8,1.16,1.23,1.72a14.56,14.56,0,0,0,1.37,1.56c.17.18.36.34.53.5l.65.62.5.42c.24.2.48.42.73.61s.76.61,1.16.88l.79.55a13.8,13.8,0,0,0,1.81,1c.27.13.55.24.83.35s.51.2.77.28l1,.29.57.13c.27.07.53.14.8.19.49.07,1,.17,1.47.22l1,.1c.29,0,.59,0,.88,0a15.05,15.05,0,0,0,2.76-.17,10.66,10.66,0,0,0,1.12-.25,7.43,7.43,0,0,0,1.12-.39c.23-.1.46-.21.68-.33a7,7,0,0,0,.63-.38l.07-.05h0a3.58,3.58,0,0,0,0,1.13l0,.2a4.13,4.13,0,0,0,.17.45c.07.1.14.19.2.29a1.42,1.42,0,0,0,.36.33,2.39,2.39,0,0,0,1.07.39,6.73,6.73,0,0,0,1.55.09c.49,0,1-.06,1.47-.11l.83-.1c.17.43.35.86.55,1.28s.31.7.48,1,.26.51.4.76.38.67.58,1a.5.5,0,0,0,.86-.51c-.2-.33-.4-.66-.58-1l-.44-.86-.21-.44c-.11-.24-.21-.48-.32-.71l0,.07,0-.08,0,0,0,0c-.09-.22-.19-.44-.28-.67,1-.13,2-.29,3-.47s2.12-.47,3.17-.74,1.94-.53,2.91-.83,1.86-.61,2.79-.91l1.36-.49c.47-.17.94-.34,1.41-.54s.9-.37,1.34-.58a9.79,9.79,0,0,0,1.84-1l.49-.43a2.51,2.51,0,0,0,.32-.41L202,49a1,1,0,0,0,.15-.47l0-.36-.06-.32a2.49,2.49,0,0,0-.21-.51,3.21,3.21,0,0,0-.39-.52,5.47,5.47,0,0,0-.7-.66c-.24-.19-.5-.36-.75-.52A9.53,9.53,0,0,0,199,45c-.21-.11-.43-.23-.65-.33-.5-.21-1-.44-1.5-.63l-.74-.28c-.26-.11-.54-.19-.81-.28-.57-.19-1.15-.36-1.72-.54s-1-.28-1.47-.41-1.08-.28-1.62-.42c-.94-.24-1.89-.47-2.84-.68-.53-.11-1.05-.23-1.58-.33l-.89-.18-.76-.15c-.68-.11-1.37-.22-2-.31a18.89,18.89,0,0,0-2-.2c-.37,0-.73,0-1.09,0a6.59,6.59,0,0,0-1.6.17,1.06,1.06,0,0,0-.28.15.51.51,0,0,0-.25.42.57.57,0,0,0,0,.26.54.54,0,0,0,.16.26.67.67,0,0,0,.25.25s0,.08,0,.11.09.29.14.43.11.44.16.66a4,4,0,0,0,.09.48l.06.45c0,.48.06,1,.06,1.43,0,.27,0,.54,0,.81s-.05.53-.08.8c-.08.47-.16.94-.25,1.4s-.25,1.13-.39,1.69-.26.88-.38,1.32a1.46,1.46,0,0,1,0,.2l-.44.32-.43.3a8.29,8.29,0,0,1-1.24.68c-.4.15-.8.28-1.21.39s-.71.15-1.07.21a15.76,15.76,0,0,1-2.28.1c-.29,0-.59,0-.88,0l-1.11-.11-1-.16c-.3,0-.6-.13-.89-.2a16.81,16.81,0,0,1-2.58-.82l-1-.47c-.34-.18-.67-.38-1-.59s-.52-.36-.79-.54c-.43-.3-.84-.63-1.27-1l.11.08c-.47-.4-.94-.78-1.38-1.2l-.85-.8a14.54,14.54,0,0,1-1.34-1.49q-.72-1-1.38-2a15.75,15.75,0,0,1-1.2-2.21v0l0-.09,0,.06c-.33-.8-.62-1.61-.93-2.41a17.85,17.85,0,0,1-.62-2.13c-.13-.54-.22-1.09-.31-1.64-.22-1.28-.39-2.56-.57-3.84,0,.05,0,.09,0,.13-.16-1.2-.32-2.4-.5-3.61-.08-.54-.18-1.08-.27-1.63s-.17-1-.25-1.53c-.12-1-.23-2-.3-3s-.15-2.19-.21-3.29c0-.51-.08-1-.12-1.54s-.12-1.16-.19-1.74c0-.23-.05-.46-.08-.7-.11-.66-.25-1.33-.41-2a18.74,18.74,0,0,0-.65-2.09,12.48,12.48,0,0,0-.91-1.92,12.38,12.38,0,0,0-1.65-2.11c-.33-.37-.67-.72-1-1.06l-.54-.51c-.24-.2-.49-.41-.72-.63l-.54-.41c-.19-.15-.37-.3-.57-.44l-.79-.54a6.42,6.42,0,0,0-.56-.34c-.18-.11-.36-.23-.55-.33l-1-.53L138.9,2l-.9-.41c-.18-.08-.37-.14-.56-.21l-.95-.35L136.24,1l-.53-.15L134.8.58c-.63-.16-1.26-.29-1.9-.4A15,15,0,0,0,130.68,0h-.15c-.56,0-1.11,0-1.66.06Zm3.45,1h0Zm5.15,1.36,0,0,0,0Zm-14.67.06,0,0,0,0Zm19,2.36.07,0-.07,0Zm4.07,3.9,0,0,0,0Zm-28.47,26.1v.06s0,0,0-.06Zm61.66,6.37h.57l.54,0,.39,0c.32,0,.65,0,1,.08l1.25.16h-.14c.54.08,1.08.16,1.61.26l1.73.34,1.19.26.66.14,2,.49,1.76.45.86.23.82.23,1.9.61.75.25,1,.38c.36.16.73.31,1.09.48l.77.39a9.28,9.28,0,0,1,1.43.9l-.1-.08a5.47,5.47,0,0,1,.51.45q.17.16.3.33h0l.08.1-.06-.07a1.92,1.92,0,0,1,.18.31l.06.21v.23c0,.07-.05.13-.08.19l-.06.08a3.43,3.43,0,0,1-.52.49,12.77,12.77,0,0,1-2.4,1.26c-1.09.45-2.2.87-3.32,1.24s-2.43.83-3.66,1.17-2.5.72-3.77,1c-.68.14-1.36.3-2,.4s-1.39.22-2.09.31h0l-.33,0c-.25-.61-.48-1.23-.71-1.84s-.48-1.31-.71-2-.4-1.14-.59-1.72c.06-.09.13-.18.19-.28a3.91,3.91,0,0,0,.38-.8,3.08,3.08,0,0,0,.19-.85c0-.17,0-.33,0-.49a2.63,2.63,0,0,0,0-.49,5.91,5.91,0,0,0-.43-1.65,6,6,0,0,0-.86-1.5,9.47,9.47,0,0,0-.74-.81c-.33-.32-.69-.61-1-.9l.52,0Zm-155.86.17h0Zm156.5,3.91c-.21-.67-.42-1.34-.64-2,0-.14-.09-.27-.13-.41a8.93,8.93,0,0,1,.65.73c.12.16.23.33.34.51a6.18,6.18,0,0,1,.36.73h0a7.4,7.4,0,0,1,.37,1.38,2.23,2.23,0,0,1,0,.37c0,.15,0,.3,0,.44a2.57,2.57,0,0,1-.08.4,2.81,2.81,0,0,1-.1.31c-.26-.81-.51-1.63-.76-2.45ZM178,43.9V44a.13.13,0,0,1,0-.06Zm2.62,2.24s0,.07,0,.11,0-.07,0-.11Zm-1.75,1.38c0-.25.08-.51.11-.76l0-.27c.25.79.5,1.58.76,2.37-.15.18-.31.36-.47.53l-.73.72-.32.29a25.91,25.91,0,0,0,.62-2.88Zm-.9-.67v0Zm2.47,1h0v0l0,0Zm-2.09,3.8c.52-.46,1.05-.92,1.53-1.42a3.07,3.07,0,0,0,.25-.26c.06.17.11.35.17.52.23.67.48,1.33.72,2l.45,1.23c.12.34.26.67.39,1l-.49,0a13.65,13.65,0,0,1-2.56.08l.14,0-.53-.08-.33-.1-.15-.08-.16-.13-.15-.21a.36.36,0,0,1,0,.09,1.29,1.29,0,0,1-.12-.38,4.84,4.84,0,0,1,0-.85s0,.09,0,.13c0-.25.08-.49.13-.74s0-.26.08-.39l.57-.47Zm-10.12,1.75h0Zm9.3.45v0Zm5.81.68-.09,0,.09,0Zm-5.34.11.06,0-.06,0Zm-131.89.52.09.06-.09-.06ZM98,60.05l-.06,0,.06,0ZM65.94,63.81h0Zm117.66-7.6h0v0ZM5.69,49.72v0l0,0,0,0ZM201,47.65l0,0h0l0,0ZM33.72,45.7h0Zm-23.38-.49ZM153.7,42.09h0v0ZM120,4.12v0l0,0Z"/></g></g></svg>