<svg xmlns="http://www.w3.org/2000/svg" viewBox="0 0 149.72 58.07"><defs><style>.cls-1{fill:#ff8552;}</style></defs><g id="Layer_2" data-name="Layer 2"><g id="Draw_Layer" data-name="Draw Layer"><path class="cls-1" d="M52,0c-.18,0-.36,0-.53,0l-.75.05c-.43,0-.85.08-1.27.13s-.65.08-1,.13-.74.1-1.11.17L45.86.78c-.34.06-.68.15-1,.22s-.69.14-1,.24l-1.41.4c-.38.11-.75.24-1.12.37s-.73.24-1.09.37-.63.21-.94.33-.8.3-1.18.48L37,3.71l-1.19.6c-.39.19-.77.42-1.16.63s-.69.39-1,.6a7.91,7.91,0,0,0-.79.48l-1.16.75c-.41.27-.8.59-1.19.9-.19.15-.37.31-.55.47L28.28,7.8c-.41-.09-.84-.14-1.26-.21s-.75-.11-1.13-.15c-.74-.08-1.47-.15-2.21-.16-.38,0-.76,0-1.14,0l-.75,0a5.15,5.15,0,0,0-.55,0l-1.32.13c-.41,0-.81.11-1.21.17l-.47.08c-.17,0-.33.07-.49.1-.39.08-.79.16-1.18.26l-1.42.37-.29.09L14,8.81,13.49,9a3.66,3.66,0,0,0-.46.18c-.37.15-.75.29-1.11.46s-.86.41-1.28.63a17.06,17.06,0,0,0-2.81,1.89c-.38.31-.76.64-1.12,1a14.93,14.93,0,0,0-1.13,1.12A15.24,15.24,0,0,0,4.26,16c-.2.29-.4.58-.58.88s-.5.83-.74,1.25-.36.66-.54,1l-.3.57c-.23.41-.42.86-.61,1.29a18.45,18.45,0,0,0-1,3A16.42,16.42,0,0,0,0,27.19c0,.71,0,1.43,0,2.15L.15,31a8.65,8.65,0,0,0,.1.89L.43,33.2a12.32,12.32,0,0,0,.24,1.21l.14.68c.08.41.2.82.31,1.22a17,17,0,0,0,1.16,3c.21.44.44.86.68,1.29s.35.63.53.95c.1.15.2.3.29.46s.19.32.3.48.25.38.37.57.16.25.25.37c.25.35.49.7.76,1,.5.63,1,1.25,1.53,1.87S8.1,47.58,8.68,48.2c.23.25.48.48.72.72l.44.43a4.36,4.36,0,0,0,.4.35c.59.5,1.17,1,1.77,1.46l1,.81c.33.27.68.51,1,.77l.88.63.88.66,1.92,1.42,1.08.82L21,57.93a.57.57,0,0,0,.35.14.48.48,0,0,0,.5-.5.48.48,0,0,0-.14-.35c-1.43-1.11-2.87-2.22-4.32-3.29L15.5,52.54l-.86-.62-1-.72.1.08-1.09-.85-1.06-.88c-.34-.27-.68-.56-1-.85-.11-.09-.21-.2-.31-.3l-.69-.68c-.33-.32-.63-.66-.94-1s-.58-.67-.87-1c-.56-.63-1.08-1.29-1.61-1.95-.27-.37-.55-.74-.8-1.13s-.6-.91-.88-1.38c-.11-.17-.21-.34-.31-.52s-.26-.43-.38-.66l-.44-.82c-.25-.47-.47-1-.68-1.44a.36.36,0,0,0,0,.09,17.87,17.87,0,0,1-1-3.17c-.12-.55-.23-1.1-.35-1.65l-.18-1.4c0-.21-.05-.42-.08-.63s0-.27,0-.4L1,29q0-.77,0-1.53a14,14,0,0,1,.14-1.83.51.51,0,0,0,0,.13,18.44,18.44,0,0,1,1.15-4.17c.21-.47.42-1,.66-1.41l.39-.72c.21-.39.41-.78.63-1.15s.47-.82.73-1.21c.38-.56.75-1.12,1.15-1.65a18.24,18.24,0,0,1,3.07-3c.41-.31.83-.6,1.26-.88s.82-.48,1.24-.69l1.15-.55-.11,0,1-.39.67-.25,1.2-.38c.26-.08.53-.14.8-.21s.59-.17.9-.24l1.16-.25c.58-.12,1.18-.2,1.77-.28l.71-.07c.23,0,.47-.06.71-.07l1.12,0h.95a5.06,5.06,0,0,1,.55,0l1,.06c.51,0,1,.1,1.52.16L28,8.77l.59.11.47.1c-.11.12-.23.24-.34.37-.26.31-.53.6-.77.92s-.53.66-.77,1l-.74,1.08c-.1.13-.18.28-.27.42s-.32.53-.49.79a16.13,16.13,0,0,0-1.12,2.19A12.31,12.31,0,0,0,24,17.34a12.17,12.17,0,0,0-.33,1.57,9.3,9.3,0,0,0-.08,1.58c0,.44.08.89.14,1.32a12,12,0,0,0,.95,3.11,11.48,11.48,0,0,0,1.45,2.58c.3.37.61.72.94,1.07a9,9,0,0,0,1.21,1A13.17,13.17,0,0,0,30.88,31c.46.19.93.35,1.4.52s.7.23,1,.33a22.35,22.35,0,0,0,2.44.62c.51.1,1,.17,1.53.23s1.06.07,1.59.09,1,0,1.58,0a19.68,19.68,0,0,0,2-.11A10.6,10.6,0,0,0,45.35,32a10.3,10.3,0,0,0,1.17-.54,7.14,7.14,0,0,0,1.38-1,7.62,7.62,0,0,0,.91-1.05,6.54,6.54,0,0,0,.75-1.31A10.64,10.64,0,0,0,50.38,25a8.81,8.81,0,0,0,0-1.54c0-.42-.06-.85-.12-1.27s-.17-.89-.28-1.33a9.5,9.5,0,0,0-.51-1.38A9.83,9.83,0,0,0,48.7,18l-.37-.5c-.23-.32-.49-.62-.74-.92s-.28-.31-.42-.46l-.32-.32-.47-.45c-.17-.16-.36-.31-.54-.46-.58-.49-1.2-.91-1.81-1.34l-.5-.33-.4-.26c-.34-.19-.67-.4-1-.58-.71-.37-1.42-.73-2.16-1s-1.67-.7-2.52-1c-.33-.14-.66-.26-1-.38l-.57-.21c-.17-.07-.35-.11-.51-.17L34.29,9.2c-.42-.11-.83-.24-1.25-.34-.63-.16-1.27-.31-1.91-.45l.24-.19c.37-.29.76-.57,1.16-.83l1-.66.7-.41L35,5.86c.58-.31,1.16-.63,1.75-.93S38,4.33,38.63,4l1.23-.49c.15-.07.31-.11.47-.17l.93-.31,1.26-.41c.46-.15.93-.27,1.4-.41s.79-.19,1.19-.28.82-.19,1.23-.27.94-.19,1.41-.26l1.48-.21c.48-.05,1-.12,1.44-.15L51.79,1h.67c.27,0,.55,0,.82,0l1.08.07.68.08.92.12h-.13c.76.13,1.52.27,2.28.44s1.56.34,2.35.52l1.24.32,1,.24,2.56.67c1.51.41,3,.83,4.51,1.28l1.05.32c.36.11.72.24,1.09.38s.61.21.91.34L74,6.26c1,.46,2.07.92,3.07,1.44l.83.44c.27.14.52.31.79.46l.54.34.88.6.92.71c.3.23.59.47.88.71l1.74,1.44c1.23,1,2.45,2.09,3.75,3,.65.47,1.29.94,2,1.37.31.22.62.44,1,.63s.69.43,1,.63l1.1.6c.36.19.72.36,1.08.54s.75.35,1.12.53.8.34,1.2.5.68.28,1,.42l1.14.44,1,.32c.36.12.72.24,1.09.33l1.23.31.45.08,1,.17c.74.14,1.49.22,2.24.32.43.06.86.1,1.29.14s.7.08,1,.1.86.07,1.29.09.93,0,1.4.06c.8,0,1.6,0,2.41,0,.36,0,.72,0,1.08-.07a4.53,4.53,0,0,0,.53-.05l.65-.09c1.51-.22,3-.5,4.5-.82s3.17-.75,4.74-1.21a21.1,21.1,0,0,0,4.3-1.72c.71-.39,1.41-.79,2.1-1.21l.47.82c.25.45.52.91.76,1.37l.44.85,0,.36c0,.39,0,.77.08,1.15s.11.89.18,1.34.15.73.23,1.1a7.79,7.79,0,0,0,.36,1.16,6,6,0,0,0,.25.58c.08.15.16.3.25.44l.21.27a1.15,1.15,0,0,0,.33.25.53.53,0,0,0,.39.05.81.81,0,0,0,.32-.16l.09-.08a.45.45,0,0,0,.13-.22l.07-.16c0-.1,0-.21,0-.31a4,4,0,0,0,0-.69c0-.23-.06-.46-.09-.68a7.43,7.43,0,0,0-.23-.9c-.09-.31-.22-.62-.34-.93s-.32-.76-.49-1.13c-.27-.57-.54-1.14-.83-1.7,0-.43,0-.87,0-1.3,0-.62,0-1.25,0-1.87s.05-1,.09-1.55l.38-.33c.18-.18.36-.36.52-.55a.9.9,0,0,0,.23-.4.47.47,0,0,0-.07-.41.52.52,0,0,0-.18-.18.51.51,0,0,0-.38-.05,1,1,0,0,0-.21.1l-.18.1-.05,0h0a.89.89,0,0,0-.23,0,.59.59,0,0,0-.34.13,1.1,1.1,0,0,0-.38.82,2.13,2.13,0,0,0,0,.25l-.37.29c-.37.26-.75.51-1.13.76-.25-.42-.52-.84-.79-1.25-.52-.8-1-1.59-1.58-2.36l-.74-1.08-.43-.65a8.64,8.64,0,0,1-.57-.91l0-.09a1.28,1.28,0,0,1,.34-.07l-.13,0a5.43,5.43,0,0,1,.57,0l.61.06.91.16,1.34.28c.79.18,1.57.39,2.36.59s1.48.41,2.21.62l2.3.67,4.52,1.38,2.34.73,2.29.75,1.23.39.52.17.55.18-.2.1a10.61,10.61,0,0,1-1.36.4l-.85.22-1.36.34-3.34.92c-1,.27-2,.57-3,.87-.45.13-.9.28-1.35.42-.69.22-1.36.46-2,.72a.53.53,0,0,0-.3.23.59.59,0,0,0,0,.39.5.5,0,0,0,.62.34c.34-.13.69-.27,1-.38l.72-.24,1.2-.39c.73-.23,1.47-.44,2.21-.65,1.57-.46,3.15-.89,4.72-1.31.94-.26,1.88-.47,2.82-.72a5.29,5.29,0,0,0,1.13-.47,1.47,1.47,0,0,0,.4-.24.86.86,0,0,0,.23-.33.91.91,0,0,0,0-.4.68.68,0,0,0-.17-.35l-.1-.09a.58.58,0,0,0-.24-.14c-.21-.1-.43-.17-.64-.25-.37-.13-.75-.24-1.13-.36l-1.3-.42L144,13.48l-2.34-.73-2.2-.67c-.74-.22-1.47-.46-2.21-.67l-2.53-.74c-1.52-.44-3-.85-4.59-1.19-.8-.18-1.59-.34-2.39-.44A6.06,6.06,0,0,0,127,9a4.91,4.91,0,0,0-.67.08,1,1,0,0,0-.45.21l-.15.11a1.51,1.51,0,0,0-.18.26.66.66,0,0,0-.05.48,1.39,1.39,0,0,0,.14.48,9.19,9.19,0,0,0,.52.85c.63,1,1.3,1.89,1.93,2.84.3.45.6.9.89,1.35s.57.85.82,1.28c-.27.18-.56.34-.84.51-.48.28-1,.56-1.46.81-.25.13-.51.28-.77.39l-.77.34c-.44.17-.88.33-1.33.48s-1,.32-1.55.47-1.07.3-1.6.44-1,.26-1.52.37q-1.58.34-3.15.66c-1,.19-2,.34-3,.48l-1.07.08c-.35,0-.7,0-1.06,0-.67,0-1.35,0-2,0-.37,0-.73,0-1.1-.05l-1.39-.09c-.7-.06-1.4-.15-2.1-.22l.14,0-1.38-.19c-.38,0-.75-.11-1.12-.18s-.86-.14-1.28-.24l-.86-.21a4.27,4.27,0,0,1-.48-.13l-1.3-.4-.51-.19-.74-.27c-.4-.15-.79-.32-1.19-.48l-1.17-.49L94,18.35c-.37-.17-.73-.37-1.08-.55-.75-.37-1.47-.8-2.18-1.23-.33-.2-.65-.43-1-.64l-1-.66-2-1.47-1.8-1.48c-.64-.55-1.29-1.09-1.94-1.62S82,9.76,81.41,9.3c-.29-.22-.57-.46-.87-.67l-.61-.41c-.15-.1-.29-.21-.45-.3L78.4,7.29l-.35-.19-.81-.43c-.32-.17-.66-.31-1-.47L75.2,5.71l-2.34-1c-.36-.15-.73-.26-1.09-.4S71,4.08,70.65,4C67.6,3,64.5,2.2,61.4,1.43c-.76-.2-1.53-.37-2.29-.55S57.52.55,56.73.41l-1-.17L54.9.13l-.45,0-.77,0-.44,0ZM38.61,4l-.07,0,.07,0Zm-9.35,6.21c.12-.13.23-.27.35-.39l.61-.63h0c.78.17,1.56.35,2.33.54,1,.24,2,.55,2.95.85l.52.2.93.34c.48.18.95.38,1.42.58h0c.55.23,1.11.46,1.65.72l.8.37c.31.16.63.32.94.5s.6.34.89.51c.13.07.26.16.38.24l.5.33c.51.33,1,.7,1.47,1.07l.67.56c.22.18.42.4.63.6s.38.42.58.62.34.41.51.62l.43.6a8.31,8.31,0,0,1,.91,1.62,10.41,10.41,0,0,1,.61,2.25,11.16,11.16,0,0,1,0,2.77h0c-.08.46-.17.91-.28,1.36a8.22,8.22,0,0,1-.39,1.12c-.11.24-.22.46-.35.69a6.31,6.31,0,0,1-1,1.29,5.07,5.07,0,0,1-.54.49,9.87,9.87,0,0,1-.83.54c-.24.13-.49.25-.74.36s-.76.28-1.15.4a9.29,9.29,0,0,1-1.39.3,19.91,19.91,0,0,1-2.79.14l-1.31-.05c-.54,0-1.08,0-1.61-.12l.13,0a22.56,22.56,0,0,1-2.81-.57l-1.27-.38c-.69-.21-1.36-.47-2-.74h0a12.28,12.28,0,0,1-2.53-1.47,9,9,0,0,1-1.58-1.62,11.06,11.06,0,0,1-.82-1.31c-.24-.44-.44-.9-.63-1.35l0,.08a12.52,12.52,0,0,1-.81-2.87,11.11,11.11,0,0,1-.1-1.16A7.62,7.62,0,0,1,24.7,19a14.55,14.55,0,0,1,.91-3.17l0,.06,0-.06,0-.06,0,.06a17.24,17.24,0,0,1,1.05-1.94c.22-.36.44-.74.68-1.09l.75-1.08.34-.44.38-.49,0,0,.48-.57Zm57.55,3.5,0,.05,0-.05ZM45,15.47l.09.07L45,15.47ZM148.32,16l0,0,0,0ZM132,16.68c0,.67-.06,1.34-.08,2-.21-.38-.43-.76-.64-1.15l-.15-.26.87-.59ZM47.4,17.89l0,0,0,0Zm47.68.95,0,0,0,0Zm38.35,5.72c-.05-.19-.09-.38-.13-.58a3.55,3.55,0,0,1-.09-.47l0,.06c.06.14.13.28.18.42l.21.6a8.35,8.35,0,0,1,.28,1.2c0,.07,0,.14,0,.2l-.09-.19a11.18,11.18,0,0,1-.4-1.24Zm-84.07.61v.06a.13.13,0,0,1,0-.06Zm84.53.55v.07a.17.17,0,0,1,0-.07Zm0,.81v.07h0s0,0,0-.07Zm-85.24,1.1,0,.07,0-.07Zm-.87,1.44,0,0,0,0Zm-2.5,1.86,0,0,0,0Zm-2.64.73h0ZM6.15,43.73l0,0,0,0ZM25.61,15.82Z"/></g></g></svg>