<svg xmlns="http://www.w3.org/2000/svg" viewBox="0 0 177.34 42.68"><defs><style>.cls-1{fill:#ff8552;}</style></defs><g id="Layer_2" data-name="Layer 2"><g id="Draw_Layer" data-name="Draw Layer"><path class="cls-1" d="M152.84.12a2.32,2.32,0,0,0-1.41,1.12A2.28,2.28,0,0,0,151.78,4a5.37,5.37,0,0,0,1.92,1.12l1.6.71c1.27.56,2.57,1.09,3.86,1.62,1.7.74,3.36,1.53,5.05,2.28l.44.19a43.7,43.7,0,0,1-5.54,1.19c-.87.1-1.73.18-2.61.23s-2,0-3,0c-1.66-.07-3.3-.26-4.94-.46a46.6,46.6,0,0,1-6.91-1.54c-2.2-.71-4.35-1.58-6.53-2.36a68.6,68.6,0,0,0-6.71-2c-2.32-.58-4.66-1.05-7-1.44A69.86,69.86,0,0,0,106.65,3c-2.37.11-4.74.33-7.1.63a72.28,72.28,0,0,0-7.74,1.31c-1.18.28-2.34.64-3.5,1S86.22,6.56,85.23,7,83,7.9,82,8.44A57.69,57.69,0,0,0,75.8,6.7a67.19,67.19,0,0,0-7.35-1.12A88.47,88.47,0,0,0,53.8,5.4a78.37,78.37,0,0,0-7.8,1c-2.35.38-4.67.85-7,1.42s-4.45,1.15-6.66,1.76-4.57,1.37-6.8,2.23-4.76,1.8-7.09,2.84c-2.15,1-4.26,2-6.31,3.19a35.66,35.66,0,0,0-7.73,6,20.4,20.4,0,0,0-3,4A13.49,13.49,0,0,0,.36,30.26,8.21,8.21,0,0,0,0,32.82,11.81,11.81,0,0,0,.37,35.4,2.24,2.24,0,0,0,3.13,37,2.27,2.27,0,0,0,4.7,34.21c0-.28-.11-.56-.17-.84a8.14,8.14,0,0,1,0-1.21A7.29,7.29,0,0,1,4.85,31a17.36,17.36,0,0,1,1.57-2.66,28.7,28.7,0,0,1,3.95-3.92A37.89,37.89,0,0,1,15,21.36c1.85-1,3.72-1.95,5.64-2.81s4.15-1.68,6.24-2.49c2.28-.88,4.61-1.6,7-2.25s4.43-1.21,6.66-1.76,4.71-1,7.1-1.42l2.16-.32c1.7-.2,3.41-.41,5.13-.48s3.56-.14,5.34-.14,3.61,0,5.41.16,3.39.3,5.08.5c2.08.33,4.14.73,6.18,1.25a22.59,22.59,0,0,0-2.69,2.48A19.79,19.79,0,0,0,71,18.44a23.73,23.73,0,0,0-1.72,4.29A24.26,24.26,0,0,0,68.75,26a16.11,16.11,0,0,0,0,3.33,13.68,13.68,0,0,0,.95,4,15.71,15.71,0,0,0,1.75,3.16,14.43,14.43,0,0,0,4.47,4,16.26,16.26,0,0,0,3.33,1.48,12.82,12.82,0,0,0,2.2.45,13.18,13.18,0,0,0,2.51.16A22.44,22.44,0,0,0,88.32,42a15.28,15.28,0,0,0,4.33-2,18,18,0,0,0,2.39-2,13.88,13.88,0,0,0,4.14-8.48,13.7,13.7,0,0,0-.07-3.2A16.94,16.94,0,0,0,98.37,23a25.06,25.06,0,0,0-1.54-3.66,20.38,20.38,0,0,0-2.15-3.15,13.75,13.75,0,0,0-1.81-1.85,30.31,30.31,0,0,0-3.3-2.45c-.59-.37-1.2-.72-1.82-1,1.35-.49,2.72-.92,4.11-1.3A59.23,59.23,0,0,1,98.71,8.2c3.32-.41,6.66-.74,10-.82,1.78,0,3.57-.07,5.35,0s3.33.17,5,.35a85.59,85.59,0,0,1,13.51,3.1c2.13.67,4.19,1.53,6.29,2.27a44,44,0,0,0,6.85,1.81,59.65,59.65,0,0,0,7.41.87,27.39,27.39,0,0,0,3.39,0c1.31-.08,2.61-.22,3.91-.41A41.8,41.8,0,0,0,167,13.87a37.88,37.88,0,0,0,4.43-1.51,2.06,2.06,0,0,0,.4-.25,8.53,8.53,0,0,1,.79.8l.15.26-.28.27a27.13,27.13,0,0,1-4.16,2c-1,.45-2.09.89-3.13,1.35a28.85,28.85,0,0,0-6.46,3.62,2.19,2.19,0,0,0-.66,1.6,2.25,2.25,0,0,0,2.25,2.25,2.17,2.17,0,0,0,1.35-.48l-.05,0a33,33,0,0,1,6-3.23l3-1.31a19.68,19.68,0,0,0,4.7-2.46,5.91,5.91,0,0,0,1.44-1.67,4.17,4.17,0,0,0,.41-2.73,6.83,6.83,0,0,0-2.66-3.9,22.43,22.43,0,0,0-4.87-2.85c-2.29-1.08-4.69-1.9-7.07-2.78l-3.9-1.45L156.55.63A10.47,10.47,0,0,0,154.21,0l-.36,0a5,5,0,0,0-1,.12Zm20.09,12.66a.59.59,0,0,1,0,.13l0-.13Zm-.11.48a1.42,1.42,0,0,1-.08.18l.08-.18Zm-.08,0-.13.18.13-.18Zm-90.38.07.84.32c1,.42,1.92.86,2.83,1.37a28.16,28.16,0,0,1,2.86,1.81,20.82,20.82,0,0,1,2.87,2.84,18.49,18.49,0,0,1,1.73,3.06,21,21,0,0,1,1.13,3.72,15.15,15.15,0,0,1,.08,2.86,12.11,12.11,0,0,1-.59,2.22,15.25,15.25,0,0,1-1.26,2.27,15.86,15.86,0,0,1-2.12,2.06,13.51,13.51,0,0,1-2.36,1.36A16.41,16.41,0,0,1,85,38.1a17.38,17.38,0,0,1-2.7,0,13.69,13.69,0,0,1-2.66-.69,15.47,15.47,0,0,1-2.69-1.59,11.65,11.65,0,0,1-1.5-1.48A13.65,13.65,0,0,1,74,31.88a13.14,13.14,0,0,1-.67-2.4c-.06-.62-.1-1.25-.12-1.88a14.66,14.66,0,0,1,.15-2.19,20.71,20.71,0,0,1,.91-3.28,18.21,18.21,0,0,1,1.91-3.42,22.52,22.52,0,0,1,3.46-3.51,31.35,31.35,0,0,1,2.75-1.84Zm90.56.18a.41.41,0,0,1,0,.11v-.11Z"/></g></g></svg>