<svg xmlns="http://www.w3.org/2000/svg" viewBox="0 0 198.83 45.34"><defs><style>.cls-1{fill:#ff8552;}</style></defs><g id="Layer_2" data-name="Layer 2"><g id="Draw_Layer" data-name="Draw Layer"><path class="cls-1" d="M198.81,10.18a1.2,1.2,0,0,0-.19-.47,3.73,3.73,0,0,0-.26-.3,5.35,5.35,0,0,0-.5-.45,9.78,9.78,0,0,0-1.2-.82l-.42-.25c-.12-.08-.26-.14-.39-.21-.6-.31-1.2-.61-1.82-.87s-1.2-.51-1.81-.75L191,5.58l-1-.37-1-.35c-.3-.11-.61-.19-.91-.29l-1.27-.39c-.26-.09-.53-.15-.79-.22l-1.44-.39c-.48-.13-1-.24-1.44-.34a22.35,22.35,0,0,0-2.69-.39,8.13,8.13,0,0,0-1.48,0l-.58.08a3.07,3.07,0,0,0-.85.24,7,7,0,0,0-.91.45,3.81,3.81,0,0,0-.75.57l-.24.28a1,1,0,0,0-.2.37,2.3,2.3,0,0,0-.18.73,4.92,4.92,0,0,0,0,1.38l.09.61c0,.21.08.41.12.61.1.51.24,1,.38,1.52a8,8,0,0,1-.89,1c-.37.35-.75.68-1.14,1l-.62.44a7.63,7.63,0,0,1-1,.53l-.42.16a7,7,0,0,1-.93.24c-.27,0-.52.05-.79.06a6.11,6.11,0,0,1-.86-.05c-.55-.08-1.08-.19-1.62-.32a9.63,9.63,0,0,1-1.26-.39l-.47-.2c-.18-.08-.36-.19-.54-.28s-.36-.22-.54-.33-.35-.24-.53-.37-.47-.36-.69-.56-.51-.46-.77-.69a15.08,15.08,0,0,1-1.25-1.39,25.56,25.56,0,0,0-2-2.5c-.38-.4-.76-.79-1.16-1.16s-.55-.52-.84-.78l-.35-.29-.37-.3c-.23-.15-.45-.32-.67-.47l-.5-.33a5.14,5.14,0,0,0-.51-.29,16.2,16.2,0,0,0-1.77-.88c-.24-.12-.48-.21-.73-.32l-.8-.33-.53-.2-.55-.17a6.24,6.24,0,0,0-.85-.22l-.79-.14L148.56,0c-.19,0-.4,0-.59,0h-.44l-.77,0a8,8,0,0,0-1.94.37,7.86,7.86,0,0,0-1.39.62,6.53,6.53,0,0,0-1.23.87l-.82.7c-.21.2-.42.4-.62.62l-.61.71-.66.83a18.87,18.87,0,0,0-1.23,1.74c-.33.51-.61,1.06-.91,1.58a17.15,17.15,0,0,1-1,1.44q-.22.3-.45.57l-.59.66c-.45.5-.91,1-1.38,1.46l-1.43,1.44c-.47.46-.91,1-1.35,1.44s-.81.9-1.2,1.36L128.57,18l-1.28,1.41c-.48.53-1,1-1.5,1.55s-1,.94-1.44,1.41l-1.5,1.48-1.43,1.34c-.57.53-1.13,1.08-1.7,1.62s-.94.88-1.41,1.31l-1.67,1.6c-1,.95-2,1.92-3,2.81-.48.4-1,.81-1.45,1.2l-1.1.82c-.49.35-1,.69-1.49,1a15.9,15.9,0,0,1-2.43,1.33l-1.43.63-.88.32c-.31.12-.63.21-1,.31-.6.2-1.21.36-1.82.52l-.88.22c-.27.06-.54.14-.81.19l-1.39.3c-.61.12-1.23.23-1.85.31a51.82,51.82,0,0,1-7.88,0c-1.21-.06-2.41-.15-3.62-.23L84,39.37l.26-.15a15.35,15.35,0,0,0,2-1.46c.41-.34.78-.71,1.16-1.06a16.74,16.74,0,0,0,1.23-1.3A19.08,19.08,0,0,0,90,33.61c.6-.9,1.08-1.88,1.59-2.83l.18-.38.33-.7c.12-.25.24-.5.35-.76s.31-.74.47-1.11.31-.83.46-1.24.2-.55.29-.83.23-.65.32-1l.3-1.14a14.92,14.92,0,0,0,.37-2.41c0-.16,0-.33,0-.49a4.77,4.77,0,0,0-.08-1,8.36,8.36,0,0,0-.23-1A11.31,11.31,0,0,0,94,17.59c-.15-.35-.32-.68-.49-1a15.74,15.74,0,0,0-1.78-2.5c-.23-.29-.48-.56-.72-.84s-.44-.47-.66-.7-.27-.27-.41-.4a3.57,3.57,0,0,0-.28-.27c-.33-.3-.66-.59-1-.87a15.86,15.86,0,0,0-1.4-1,9.78,9.78,0,0,0-1.55-.78c-.29-.12-.58-.25-.88-.35l-.59-.21-.52-.16-.46-.13A13.41,13.41,0,0,0,81.79,8,10.37,10.37,0,0,0,79.12,8c-.34,0-.69.08-1,.13a10.62,10.62,0,0,0-2.66.68,13.49,13.49,0,0,0-2,.92,7,7,0,0,0-.84.59c-.38.29-.74.59-1.09.91a12.92,12.92,0,0,0-1.69,1.93c-.28.38-.53.78-.78,1.18a11.25,11.25,0,0,0-.83,1.62,15.5,15.5,0,0,0-.69,2c-.11.4-.22.81-.32,1.22s-.12.62-.18.93c0,.13-.05.26-.08.4a6.18,6.18,0,0,0-.07.62c0,.23-.06.46-.08.69a8.48,8.48,0,0,0-.06.88,11.33,11.33,0,0,0,0,1.43c0,.36.06.73.11,1.08.07.56.16,1.11.27,1.67,0,.24.09.48.14.72l.09.45.32,1.23c.07.31.18.61.28.91,0,.13.08.27.13.4a4.37,4.37,0,0,0,.18.46c.14.35.27.7.44,1l.31.64.13.27.53.91a10.89,10.89,0,0,0,1.16,1.54c.25.28.52.53.79.78a8.74,8.74,0,0,0,.94.79c.29.23.59.44.9.64a5.34,5.34,0,0,0,.89.46q.67.29,1.38.54c.42.15.85.27,1.28.4s.76.21,1.14.32l.4.11c.19,0,.39.08.59.12l1.07.23.37,0,.15,0-.91.4c-.46.19-.92.39-1.38.56l-1,.38-.8.26L75,42l-.75.2-.87.23c-.56.13-1.12.27-1.68.38L70,43.16c-.57.1-1.13.21-1.7.29l-2.18.31h0L64,44c-.22,0-.43.06-.64.07l-1.06.08-1.53.11c-.21,0-.43.05-.64.05H57.48c-.2,0-.4,0-.61,0l-1.49-.1L53.47,44c-.6-.05-1.21-.1-1.82-.17l-2.44-.27-2.28-.31L45,43c-.7-.1-1.39-.19-2.08-.31s-1.47-.22-2.2-.36c-2.82-.5-5.65-1-8.47-1.47-1.43-.25-2.85-.51-4.27-.78-.64-.11-1.28-.22-1.93-.36l-1.42-.29c-.32-.07-.64-.13-.95-.21-.67-.16-1.33-.32-2-.5l-1.22-.33L19.34,38c-1.4-.42-2.78-.88-4.16-1.35L11,35.24,9.3,34.66,7,33.85C4.63,33,0,31.36,0,31.36v1l2,.78,4.25,1.57c1.34.49,2.7,1,4.06,1.4s2.73,1,4.1,1.43,2.76.92,4.15,1.37,2.75.79,4.13,1.14l.78.2,1.14.23c.7.15,1.4.3,2.1.43l4.33.79,4.5.79,4.15.71c1.42.26,2.86.48,4.29.69l2.07.32,2.39.33c.58.08,1.16.15,1.75.21s1.4.17,2.11.23l2.54.23c.79.07,1.58.11,2.36.16a5.52,5.52,0,0,0,.57,0h2.33l.24,0,.85-.06,1.53-.12.64,0L66,44.77c.65-.08,1.29-.18,1.93-.27s1.56-.25,2.33-.38,1.32-.25,2-.38l.93-.21,1.06-.26,2.16-.62c.74-.21,1.47-.48,2.19-.74l.8-.32c.31-.13.62-.24.92-.38l1.1-.49,1-.48.11-.06,1.11.15.93.09.91.08c.81.06,1.62.12,2.43.16,1.41.09,2.83.16,4.25.2l1,0h1.18c.36,0,.71,0,1.06,0,.78,0,1.55-.11,2.32-.21,1-.15,2-.39,3.05-.6l.94-.23,1.06-.27c.32-.09.66-.17,1-.27l1.15-.37a3.89,3.89,0,0,0,.44-.16l.61-.22c.34-.13.68-.29,1-.43l.92-.43.73-.34c.38-.19.74-.41,1.11-.63s.74-.5,1.11-.75l.92-.65a54.46,54.46,0,0,0,6.2-5.45c1-1,2.06-1.91,3.07-2.89s2-1.92,3-2.9,2-1.95,3-3c.48-.5,1-1,1.42-1.52l1.33-1.46,1.33-1.48c.41-.47.83-.94,1.25-1.4s.87-.91,1.31-1.36l1.5-1.51c.43-.44.84-.9,1.25-1.36.19-.21.37-.43.54-.65s.38-.52.57-.78c.33-.48.64-1,.92-1.49a20.63,20.63,0,0,1,1.15-1.86l.59-.81.63-.78c.22-.27.45-.53.68-.79s.27-.27.4-.4l.32-.29c.29-.26.6-.52.92-.77a4.07,4.07,0,0,1,.48-.33,5.61,5.61,0,0,1,.87-.47l.22-.09a5.08,5.08,0,0,1,.69-.23,7.6,7.6,0,0,1,.95-.19A10.39,10.39,0,0,1,148,1l.59,0c.23,0,.45.07.68.09h-.14c.33.06.66.12,1,.21s.65.19,1,.29.35.13.53.2L152,2l.83.35c.58.27,1.16.55,1.74.85a10.13,10.13,0,0,1,.89.55l.84.59.48.38.25.23.33.3c.37.34.73.68,1.08,1s.63.66.94,1,.47.58.7.88c.43.58.87,1.18,1.35,1.73.25.27.5.53.77.78s.66.62,1,.9l.44.35c.18.14.38.27.56.4.35.23.72.43,1.08.62a9.85,9.85,0,0,0,1.06.44,12,12,0,0,0,1.21.35q.6.13,1.23.24a8.39,8.39,0,0,0,1,.1,5.91,5.91,0,0,0,1.11-.06,5.09,5.09,0,0,0,.66-.12,6.8,6.8,0,0,0,1-.34,5.13,5.13,0,0,0,.91-.45l.53-.35.3-.22.2-.15c.57-.5,1.15-1,1.68-1.54l0,0,.06.13c.07.18.16.37.23.56s.2.4.3.6l.31.52a4,4,0,0,0,.34.5,2.54,2.54,0,0,0,.37.43c.12.09.25.19.38.27l.35.14a.93.93,0,0,0,.7-.15.84.84,0,0,0,.23-.23l.15-.36a2.45,2.45,0,0,0,0-.46c0-.05,0-.09,0-.14a3.75,3.75,0,0,0-.16-.81c-.12-.51-.26-1-.39-1.52L179,9.64c0-.12-.05-.24-.08-.36a4.42,4.42,0,0,0-.23-.81c-.06-.14-.12-.27-.19-.41l-.24-.29a1.51,1.51,0,0,0-.26-.18.85.85,0,0,0-.42-.06.55.55,0,0,0-.28.07.54.54,0,0,0-.22.13,1.09,1.09,0,0,0-.24.24,2.26,2.26,0,0,0-.26.42c0-.24-.11-.48-.16-.73s-.1-.63-.15-1l0-.33a3.42,3.42,0,0,1,0-.64,2.56,2.56,0,0,1,.1-.48l.07-.15a2.16,2.16,0,0,1,.36-.38l.37-.25a7.67,7.67,0,0,1,.7-.36l.37-.13a5.22,5.22,0,0,1,.79-.14,7.23,7.23,0,0,1,.93,0,11.33,11.33,0,0,1,1.43.12c.51.07,1,.16,1.51.26s.75.16,1.13.26l1.52.41.93.25,1.36.43c.32.1.64.18.95.3.48.16.95.34,1.43.51.72.25,1.44.53,2.16.81l1.22.52c.39.16.77.35,1.16.53s.7.36,1.05.54l.22.13.4.25c.28.17.55.36.82.56l.23.2.36.35,0,.1v.05l0,.08-.12.16-.22.17a3.45,3.45,0,0,1-.74.38,11.19,11.19,0,0,1-2.28.64l-1.28.2h.13l-1.33.17-2.27.25a.56.56,0,0,0-.35.15.49.49,0,0,0-.15.35.48.48,0,0,0,.15.36.46.46,0,0,0,.35.14c.86-.1,1.72-.18,2.59-.29.38-.05.76-.09,1.14-.15l1.29-.21a11.41,11.41,0,0,0,2-.51c.3-.1.61-.25.9-.38a3.54,3.54,0,0,0,.81-.56l.08-.1a1,1,0,0,0,.27-.41l.06-.25A.86.86,0,0,0,198.81,10.18ZM83.4,38.58c-.35.19-.68.4-1,.58l-.18,0-1.47-.23c-.5-.08-1-.2-1.49-.3l-.41-.09-1.09-.3L76.89,38a20.62,20.62,0,0,1-2.12-.76,6.86,6.86,0,0,1-.76-.4,7.71,7.71,0,0,1-.82-.59c-.37-.3-.74-.61-1.09-.94a10.26,10.26,0,0,1-.94-1,10.49,10.49,0,0,1-.6-.88l-.42-.72c-.23-.39-.42-.81-.61-1.22-.09-.21-.17-.42-.25-.63s-.15-.34-.21-.51c-.14-.47-.31-.93-.43-1.41s-.26-1-.36-1.52c-.06-.31-.13-.62-.18-.93s-.16-.91-.22-1.37v0c0-.49-.09-1-.12-1.46a12.64,12.64,0,0,1,0-1.74c0-.16,0-.33.06-.49s0-.42.07-.63c.09-.49.16-1,.29-1.47l.28-1.07c.17-.63.4-1.25.63-1.86.11-.26.23-.52.36-.77s.28-.52.43-.77c.32-.51.67-1,1-1.5s.61-.72.94-1.07a11.46,11.46,0,0,1,1.34-1.17l.36-.26a6.59,6.59,0,0,1,.72-.44,9.71,9.71,0,0,1,1-.49c.37-.15.73-.28,1.11-.41a10.87,10.87,0,0,1,1.69-.38L79,9c.38,0,.75-.05,1.13-.07A8.79,8.79,0,0,1,81.53,9a13.69,13.69,0,0,1,1.66.37c.25.07.5.13.74.22l.83.29.44.17.34.15h0l.42.2a8.62,8.62,0,0,1,.78.44,8.14,8.14,0,0,1,1,.69c.3.24.6.49.88.74s.33.29.48.44l.56.54c.28.28.55.57.8.87s.64.75.95,1.13h0l.44.59A11,11,0,0,1,93,17.94c.1.24.2.48.28.72a7.82,7.82,0,0,1,.31,1.15,5.62,5.62,0,0,1,.08.92c0,.16,0,.33,0,.49,0,.32-.06.64-.1,1A19.79,19.79,0,0,1,92.89,25c-.12.37-.24.75-.38,1.12L92,27.45a.61.61,0,0,1,0-.12l-.62,1.44c-.06.14-.13.28-.2.43l-.49,1-.21.4c-.19.37-.39.74-.59,1.1a19.43,19.43,0,0,1-1.73,2.68A16.87,16.87,0,0,1,86.78,36l-.66.62-.85.73c-.36.26-.71.52-1.08.76S83.66,38.42,83.4,38.58Zm93.67-29c.09-.16.16-.33.24-.49l.09-.22a1.82,1.82,0,0,1,.16-.31l0,0h0a2.56,2.56,0,0,0,.11.24,4.27,4.27,0,0,1,.21.72c0,.12.05.25.08.37s.12.52.18.77.16.61.23.91l.1.35,0,.12a4.48,4.48,0,0,1,.14.73v.13l-.16-.11c-.07-.09-.15-.17-.23-.26a8.72,8.72,0,0,1-.6-1l-.26-.49c-.09-.18-.16-.37-.24-.56h0c-.08-.23-.18-.46-.25-.7C177,9.77,177,9.7,177.07,9.62Z"/></g></g></svg>