<svg xmlns="http://www.w3.org/2000/svg" viewBox="0 0 211.82 101.92"><defs><style>.cls-1{fill:#ff8552;}</style></defs><g id="Layer_2" data-name="Layer 2"><g id="Draw_Layer" data-name="Draw Layer"><path class="cls-1" d="M200.3,0a5.69,5.69,0,0,0-1.93.59,6.43,6.43,0,0,0-1.61,1.23,10.18,10.18,0,0,0-.81.93A11.39,11.39,0,0,0,195,4.05c-.13.22-.27.43-.38.65l-.44.89a5.82,5.82,0,0,0-.27.64c-.12.26-.23.53-.34.8s-.23.63-.35.94-.15.47-.23.7-.16.46-.22.69l-.33,1.12c-.28,1-.51,2-.75,3-.07.29-.12.58-.19.87s-.09.39-.13.59c-.1.56-.21,1.11-.29,1.68-.06.37-.11.74-.17,1.12,0,.22-.07.45-.09.68-.08.64-.15,1.28-.22,1.91-.12,1-.21,2.1-.29,3.15,0,.49-.08,1-.1,1.46l-.06,1.18c0,.24,0,.48,0,.73l0,1.91c0,.57,0,1.14,0,1.7s0,1,0,1.52.05,1.16.08,1.74c.06,1.13.18,2.25.32,3.37.24,2,.57,4,.88,6.07.14.89.26,1.78.41,2.67s.31,1.95.47,2.93c.34,2,.7,4,1.11,6,.1.48.21,1,.3,1.44,0,.17.07.33.11.5l-.21.17-.62.47c-.23.17-.48.32-.73.48s-.51.31-.77.47-.57.32-.86.48c-.58.32-1.17.64-1.77.93-.31.14-.62.29-.92.45s-.65.28-1,.42l-1,.42c-.39.16-.79.3-1.18.45-.16.06-.32.1-.48.15l-.67.22c-.21.07-.42.12-.64.18l-.49.14-1.15.27c-.42.09-.84.2-1.25.27s-.91.18-1.36.25l-1.47.23.14,0c-.58.07-1.16.16-1.74.21s-1.22.13-1.83.17l-2.06.15-.86.05-1.37.07h-2c-.68,0-1.36-.05-2-.09-1.22-.06-2.43-.19-3.64-.32-.52-.07-1.05-.13-1.57-.22l-1.78-.35c-.23-.06-.46-.09-.68-.16l-1-.28c-.28-.08-.55-.19-.83-.29l-.8-.32c-.34-.14-.67-.28-1-.44-.13-.07-.27-.12-.4-.2l-.6-.34c-.32-.19-.62-.39-.93-.6s-.61-.41-.91-.62c-1.24-.87-2.43-1.79-3.64-2.7l0,0-.07-.06h0l-1.46-1.13c-.56-.44-1.14-.85-1.72-1.27l-1.52-1.08c-.58-.39-1.15-.8-1.72-1.22-.37-.3-.73-.59-1.09-.9s-.69-.59-1-.9a26.93,26.93,0,0,0-2.23-1.76c-.18-.12-.35-.25-.54-.36s-.61-.37-.93-.54a9.5,9.5,0,0,0-1.23-.53c-.32-.12-.65-.21-1-.31s-.91-.22-1.37-.32c-.25-.05-.51-.07-.76-.11l-1-.14c-.55-.07-1.1-.1-1.65-.12-.39,0-.77,0-1.14,0l-.69,0c-.31,0-.62.07-.93.1-.51.05-1,.12-1.53.19s-.8.11-1.19.18a8.48,8.48,0,0,0-.87.21l-.28.09-.39.16c-.17.09-.34.18-.49.28a3.9,3.9,0,0,0-.51.4,6.87,6.87,0,0,0-.77.85c-.3.34-.59.7-.88,1.05s-.64.68-1,1c-.16.17-.35.31-.52.47a6.26,6.26,0,0,1-.51.39l0,0-.59.43c-.18.13-.38.24-.57.36-.36.23-.75.44-1.14.64l-.69.36c-.26.14-.54.26-.81.39s-.81.36-1.22.54l.12,0-1.19.48-1.34.51c-.49.18-1,.34-1.48.51s-1,.33-1.52.49-.78.22-1.17.33l-.83.22-.5.1-1,.2-.51.1-1.62.22.14,0-1.79.2c-.46,0-.93.07-1.4.08a14.3,14.3,0,0,1-2.36-.11h0c-1.35-.2-2.68-.52-4-.83l-.81-.24L90,56.3l-1.82-.65C87.1,55.27,86,54.89,85,54.49s-2-.7-3.09-1c-.5-.16-1-.29-1.52-.43l-1.8-.47c-1-.25-2-.48-3-.74l-6.39-1.68q-1.69-.45-3.39-.87c-.47-.12-.94-.23-1.41-.32l-.92-.17-1-.16c-.49-.07-1-.12-1.48-.17-.31,0-.62-.06-.93-.08l-.79-.06-1.72-.07-1.82,0c-.49,0-1,0-1.47,0l-1.6,0c-1.17,0-2.34.08-3.51.14s-2.19.13-3.28.21c-.52,0-1.05.07-1.57.12s-1.21.11-1.8.18l-1.82.22c-.63.07-1.27.18-1.9.27s-1.07.18-1.6.28-1.13.23-1.7.34c-1.07.23-2.14.49-3.2.73l-1.54.39c-.51.12-1,.27-1.52.41L27.52,52l-1.6.47-3.32.94c-1.05.3-2.09.61-3.13.94s-2,.64-3,1c-.73.29-1.45.6-2.17.91s-1.4.67-2.08,1-1.33.72-2,1.11l-1,.61-1.08.69c-.35.22-.69.46-1,.68s-.63.42-.93.64c-.67.48-1.33,1-2,1.46S3,63.5,2.38,64,.89,65.29.15,65.94a.5.5,0,0,0,0,.71.5.5,0,0,0,.7,0c.66-.57,1.31-1.16,2-1.72s1.21-1,1.82-1.51a59.21,59.21,0,0,1,5.53-3.77c1-.61,2.07-1.19,3.12-1.76.45-.23.9-.46,1.36-.66l1.73-.74-.07,0c.39-.16.78-.32,1.17-.46s1-.36,1.55-.53c1-.32,2-.61,3-.9s2.09-.6,3.14-.9,1.91-.57,2.87-.83,2.09-.58,3.15-.84c.51-.13,1-.27,1.54-.39s1.06-.23,1.58-.36c1-.23,2.07-.47,3.11-.66.53-.09,1.06-.2,1.59-.28l1.66-.23h0c.83-.1,1.65-.21,2.48-.29l1.39-.13,1.65-.13c1.71-.13,3.41-.22,5.12-.28l2.91-.08q1.35,0,2.7,0c.89,0,1.78.06,2.67.1s1.71.15,2.57.25c.46.07.92.14,1.39.23a6.71,6.71,0,0,1,.78.15l1.07.25c1.06.24,2.11.52,3.16.8l6.37,1.68c1.11.29,2.24.55,3.36.82s2.16.56,3.23.87c2.15.62,4.22,1.45,6.33,2.21l1.36.49c.25.08.49.18.73.25l1.1.31c.49.15,1,.25,1.51.37.23.06.47.1.71.15l1.35.26a15.59,15.59,0,0,0,4.36.17c.24,0,.47-.05.71-.08l1.19-.12c.53-.06,1.05-.15,1.57-.22s1.16-.21,1.74-.33a4,4,0,0,0,.5-.11l1-.27.74-.2.23-.07.73-.24c.51-.16,1-.33,1.52-.51l1.69-.61c1-.37,1.9-.75,2.83-1.19l.88-.41c.24-.12.48-.26.73-.38l.64-.36c.29-.16.56-.33.84-.5a12.72,12.72,0,0,0,1.2-.88l.56-.46.26-.23.43-.43c.33-.34.64-.7.94-1.07a13.15,13.15,0,0,1,1.42-1.56l.13-.1a4.67,4.67,0,0,1,.49-.27l-.11,0a5,5,0,0,1,.54-.21l.57-.14c.37-.09.75-.14,1.12-.2l1.28-.17,1.24-.13c.4,0,.79,0,1.19-.06s.67,0,1,0c.54,0,1.08.08,1.62.15l-.09,0,.11,0h0l1,.15c.26,0,.53.1.8.16l.42.09.35.1.62.19a8.64,8.64,0,0,1,.85.31q.48.22.93.48c.2.12.4.23.59.36.4.27.8.56,1.2.85l.49.39c.17.13.32.27.48.4l1,.88c.69.6,1.42,1.17,2.15,1.73s1.47,1,2.18,1.52l1.18.85,1.16.87,2.59,2c.41.32.82.62,1.23.93l.63.44.65.47c.4.29.8.57,1.22.83a15.22,15.22,0,0,0,1.41.82c.47.23.95.45,1.44.64.26.1.51.21.77.3s.54.22.83.3l.93.25.59.14.84.18,1,.18c.54.1,1.09.16,1.64.24s1.17.14,1.76.2c1.12.12,2.25.17,3.38.23.18,0,.37,0,.56,0h1.36c.39,0,.79,0,1.18,0l2-.11c.61,0,1.22-.09,1.83-.13,1.07-.08,2.14-.19,3.2-.33s2.32-.34,3.47-.54c.47-.09.93-.2,1.39-.3s1.08-.26,1.61-.41l.67-.19,1-.31c.19-.06.38-.14.56-.21l.81-.31c.5-.2,1-.4,1.49-.62l.74-.32.93-.45c1-.47,2-1,2.89-1.57l.61-.38c.21-.14.42-.27.62-.42l.49-.36c.06.36.13.73.18,1.1l.21,1.56s0-.09,0-.13c.12,1,.23,1.93.34,2.9s.22,1.81.33,2.71.21,1.81.34,2.7.32,2,.5,3.07c.06.35.14.71.22,1.07.11.53.23,1.06.35,1.59.2.89.42,1.78.65,2.67a54.25,54.25,0,0,1,1,5.52.68.68,0,0,1,0-.14c.12.94.22,1.88.27,2.82,0,.14,0,.29,0,.43s0,.22,0,.33,0,.12,0,.18l-.32-.08q-.76-.16-1.53-.3l-1.7-.24-1.58-.13c-.57,0-1.14-.08-1.71-.08a4.18,4.18,0,0,0-.61.05,2.51,2.51,0,0,0-.67.15l-.21.1a.52.52,0,0,0-.18.18.58.58,0,0,0-.15.36.59.59,0,0,1,0,.13.72.72,0,0,0,.07.25,4,4,0,0,0,.37.45l.53.57c.4.44.77.89,1.13,1.35l0,0c.25.33.5.67.73,1s.3.45.44.68l.45.75a27.45,27.45,0,0,1,1.3,2.74c.24.58.46,1.16.67,1.76s.42,1.14.62,1.71a24.71,24.71,0,0,1,.93,3.26s0-.09,0-.13a3.17,3.17,0,0,1,.05.53v.18a.51.51,0,0,0,.5.5.51.51,0,0,0,.5-.5c0-.65,0-1.3,0-2,0-.87,0-1.73.07-2.6s.08-1.56.14-2.34.16-1.69.27-2.54a.68.68,0,0,1,0,.14c.07-.47.13-.94.21-1.4s.19-1,.29-1.55.16-1,.22-1.49c0-.09,0-.19,0-.29l.33.08c.68.16,1.34.35,2,.54l1,.28c.42.12.83.23,1.24.38l.31.16.14.11.05.08v0a1,1,0,0,1,0,.17l-.12.25a2.55,2.55,0,0,1-.26.38.1.1,0,0,0,0,0c-.79,1-1.64,2-2.5,2.91-.43.46-.87.91-1.29,1.38-.58.64-1.15,1.29-1.7,1.95a.53.53,0,0,0-.15.36.51.51,0,0,0,.15.35.5.5,0,0,0,.71,0c.44-.53.89-1,1.35-1.57s.76-.82,1.14-1.23c.75-.81,1.5-1.61,2.2-2.45.36-.44.73-.87,1-1.33a2.14,2.14,0,0,1,.13-.19c.07-.16.15-.32.21-.48s.05-.2.07-.3a.62.62,0,0,0,0-.27l-.05-.26a1,1,0,0,0-.2-.34,2.08,2.08,0,0,0-.78-.56,5.79,5.79,0,0,0-1-.34l-.66-.18-1.49-.42c-.48-.13-1-.26-1.45-.37l-.35-.09a1.64,1.64,0,0,0,0-.22c0-.23,0-.45,0-.69s0-.52,0-.78c0-.5-.08-1-.14-1.48-.12-1-.28-2-.45-3s-.36-1.92-.58-2.86-.5-2-.73-3c-.12-.5-.23-1-.34-1.5s-.21-.93-.29-1.39c-.18-1.07-.35-2.13-.51-3.21a.68.68,0,0,0,0,.14c-.28-2.18-.55-4.36-.79-6.54-.07-.54-.13-1.09-.2-1.64s-.14-1.09-.23-1.63-.15-1-.25-1.49a14,14,0,0,0,2.76-3.58c.28-.45.54-.93.79-1.4s.49-.88.74-1.32c.57-1.05,1.17-2.09,1.78-3.12.27-.46.55-.91.83-1.35s.53-.89.81-1.33c.64-1,1.3-2,1.95-3s1.16-1.85,1.71-2.79,1.08-1.91,1.6-2.88c.24-.45.46-.9.68-1.35.11-.24.23-.47.33-.7s.27-.59.38-.88.26-.63.36-1,.23-.67.32-1,.19-.71.27-1.07.17-.74.25-1.11c.32-1.44.6-2.89.83-4.36.06-.37.12-.75.17-1.13l.15-1.25c0-.33.06-.67.09-1s.05-.75.07-1.12,0-.64,0-1,0-.71,0-1.06,0-.72,0-1.07,0-.84-.1-1.25a.68.68,0,0,1,0,.14c-.05-.4-.1-.8-.16-1.19a.5.5,0,0,0,0-.12c0-.1,0-.2-.05-.3-.06-.36-.12-.72-.19-1.08s-.1-.5-.16-.76c-.13-.55-.26-1.11-.41-1.66s-.22-.84-.34-1.26-.23-.67-.35-1-.2-.51-.32-.76c-.24-.49-.46-1-.72-1.47-.15-.27-.3-.53-.44-.8-.05-.09-.11-.17-.16-.25s-.26-.4-.38-.6l-.39-.56-.43-.57L206.62,3a9.34,9.34,0,0,0-1.38-1.36,8.74,8.74,0,0,0-1.37-.9,7.1,7.1,0,0,0-1.56-.57,4.45,4.45,0,0,0-.9-.15L201,0h-.15l-.58,0Zm.37,1a3.66,3.66,0,0,1,.74,0h0l.25,0a6.66,6.66,0,0,1,.77.19,5.35,5.35,0,0,1,.67.24h0c.28.13.53.26.79.41a7.75,7.75,0,0,1,.66.46,9.27,9.27,0,0,1,1.37,1.36l.55.69c.1.13.2.26.29.4a5.09,5.09,0,0,1,.34.47l.34.53.28.44c.1.2.21.4.32.6s.19.32.27.48c.18.39.37.79.56,1.18a20.56,20.56,0,0,1,.82,2.44c.1.4.21.8.3,1.2l.32,1.38c0,.11,0,.21,0,.31.06.31.11.62.17.93,0,.09,0,.18,0,.26.06.39.11.77.16,1.16s0,.69.07,1,0,.61,0,.91c0,.56,0,1.12,0,1.67l-.06,1.12c0,.3-.05.6-.07.9,0,.59-.13,1.18-.2,1.76v0q-.18,1.25-.39,2.49c-.14.82-.31,1.64-.49,2.45l-.24,1.11-.3,1.2c-.11.41-.23.8-.36,1.2s-.26.73-.4,1.09-.39.89-.61,1.32-.44.91-.67,1.36c-.49.91-1,1.83-1.52,2.73l-.82,1.37c-.28.47-.57.93-.86,1.4-.54.86-1.12,1.69-1.66,2.55-1.16,1.81-2.26,3.66-3.33,5.53-.26.45-.5.9-.75,1.36l-.8,1.45a23.76,23.76,0,0,1-1.74,2.76l.05-.06-.05.06,0,0,0,0-.5.6a4.17,4.17,0,0,1-.36.37c0-.27-.11-.54-.16-.81q-.69-3.29-1.24-6.58c-.19-1.1-.36-2.19-.54-3.29s-.35-2.32-.52-3.48c-.12-.73-.23-1.46-.34-2.19s-.19-1.32-.28-2h0c-.08-.69-.17-1.38-.23-2.07l-.12-1.35a3,3,0,0,1,0-.42c0-.31,0-.62-.05-.93s0-.67,0-1,0-.71,0-1.06c0-.81,0-1.63,0-2.45,0-.48,0-1,0-1.43s0-.77,0-1.14,0-.76.06-1.14.07-1,.11-1.48c.12-1.56.3-3.11.48-4.66l.24-1.67c.07-.52.19-1,.28-1.55s.21-1,.32-1.46.21-.94.33-1.41c.26-1,.51-2,.85-3,.1-.33.21-.67.32-1s.17-.46.26-.69c.18-.51.39-1,.6-1.5l.33-.64a5.92,5.92,0,0,1,.33-.61c.1-.17.19-.34.3-.5l.44-.63.43-.53A8.92,8.92,0,0,1,198.06,2l-.1.08a5,5,0,0,1,.6-.43,5.52,5.52,0,0,1,.54-.28,6,6,0,0,1,.64-.23,5.41,5.41,0,0,1,.58-.12l.35,0Zm.61,0h0Zm1.9.51,0,0,0,0Zm1.36.84.09.07-.09-.07Zm-8.12,1.42,0,0,0,0ZM195.1,6a.36.36,0,0,0,0,.09l0-.09ZM208.81,8.4l0,.07,0-.07Zm-17,10.13v0Zm18.64,5.09v.08s0-.05,0-.08ZM208.33,33l0,.09a.36.36,0,0,0,0-.09ZM191.6,37.64s0,0,0,.06v-.06Zm-67.45,9.84h0ZM62,49.56h0Zm-21.24.56h0Zm54.67,7.43h0Zm91.61,3,0,0,0,0ZM4.6,63.46l0,0,0,0Zm188.65,23,1,.08c.3,0,.6.06.9.09h-.07l1,.15.58.09.71.14.92.2c0,.35-.09.7-.13,1l-.3,1.61c-.11.6-.2,1.2-.29,1.79q-.24,1.72-.36,3.45c-.06.84-.1,1.67-.12,2.5l0-.11c-.23-.67-.48-1.34-.72-2s-.57-1.51-.89-2.25c-.25-.58-.51-1.16-.81-1.72q-.26-.5-.54-1c-.21-.36-.43-.7-.66-1s-.34-.47-.51-.71-.45-.62-.69-.91c-.41-.49-.83-1-1.26-1.41l.24,0-.14,0a13.33,13.33,0,0,1,2.19.05Zm2,.18h0Zm-47.57-29.8,0,0,0,0ZM16.28,56.54l0,0,0,0Zm179.25-1.6h0Zm-65.12-7.66h0Z"/></g></g></svg>