<svg xmlns="http://www.w3.org/2000/svg" viewBox="0 0 257.98 143.1"><defs><style>.cls-1{fill:#010101;}</style></defs><title>back</title><g id="Layer_2" data-name="Layer 2"><g id="Layer_1-2" data-name="Layer 1"><path class="cls-1" d="M240.69,65c4.65.49,9.53,1.12,13.24,4s5.54,8.66,2.57,12.26-8.21,3.11-12.68,2.47A659.39,659.39,0,0,0,82,80.58c-5.3.55-11,1.09-15.66-1.52s-7-9.77-3.08-13.35c2-1.84,4.94-2.17,7.66-2.4A884.3,884.3,0,0,1,240.69,65Z"/><path class="cls-1" d="M52,61.4C40.12,69.19,28,77.2,19.35,88.53,30.63,97.16,45.69,98.31,59.63,101a160.31,160.31,0,0,1,55.85,22.4c3.29,2.11,6.63,4.49,8.4,8s1.39,8.36-1.84,10.56c-4,2.71-9.26.11-13.41-2.32A187.51,187.51,0,0,0,45.3,116.55c-10.11-1.72-20.59-2.68-29.73-7.32S-1.19,95,.16,84.87,10.59,68,18.93,62.23L108.37,1c5.39-3.7,12.69,3.82,11.39,10.22s-7.24,10.65-12.71,14.22Z"/></g></g></svg>