<?xml version="1.0" standalone="no"?>
<!DOCTYPE svg PUBLIC "-//W3C//DTD SVG 20010904//EN"
 "http://www.w3.org/TR/2001/REC-SVG-20010904/DTD/svg10.dtd">
<svg version="1.0" xmlns="http://www.w3.org/2000/svg"
 width="930.000000pt" height="930.000000pt" viewBox="0 0 930.000000 930.000000"
 preserveAspectRatio="xMidYMid meet">
<metadata>
Created by potrace 1.11, written by Peter Selinger 2001-2013
</metadata>
<g transform="translate(0.000000,930.000000) scale(0.100000,-0.100000)"
fill="#000000" stroke="none">
<path d="M4628 7895 c-2 -1 -70 -5 -153 -8 -82 -4 -163 -9 -180 -12 -39 -7
-80 -13 -130 -21 -297 -44 -657 -187 -1024 -406 -87 -52 -367 -239 -431 -288
-232 -178 -299 -232 -464 -370 -125 -104 -291 -270 -417 -417 -167 -192 -349
-488 -425 -689 -54 -141 -122 -417 -138 -556 -3 -26 -8 -58 -11 -70 -14 -66
-29 -284 -29 -443 0 -129 11 -362 18 -374 2 -3 7 -35 10 -71 4 -36 9 -72 11
-80 2 -8 6 -32 9 -52 16 -104 70 -320 114 -453 14 -44 27 -82 27 -85 6 -21 81
-211 108 -270 160 -357 363 -680 662 -1055 62 -77 132 -162 156 -190 57 -65
271 -280 330 -331 414 -358 860 -513 1350 -470 41 3 85 8 99 10 14 3 41 7 60
10 134 18 203 30 255 41 33 8 71 16 85 19 198 37 616 170 835 265 11 5 36 16
55 24 19 8 60 26 90 40 30 13 78 34 105 46 103 46 372 185 543 280 323 180
570 334 1157 719 405 266 392 255 401 325 11 88 -58 167 -146 167 -53 0 -58
-3 -348 -194 -136 -89 -280 -183 -319 -209 -40 -26 -103 -67 -140 -91 -620
-400 -1186 -705 -1618 -871 -38 -15 -88 -33 -110 -42 -153 -59 -453 -145 -620
-177 -44 -9 -91 -18 -105 -21 -38 -8 -70 -13 -125 -20 -27 -4 -61 -8 -75 -10
-334 -46 -629 4 -897 151 -65 35 -142 83 -153 94 -3 3 -23 18 -46 33 -22 15
-49 35 -60 45 -11 9 -49 42 -84 72 -171 146 -378 380 -584 660 -43 58 -83 112
-89 120 -26 32 -177 268 -177 276 0 4 -6 15 -14 23 -37 43 -177 325 -244 491
-68 170 -139 398 -158 505 -3 17 -9 46 -14 65 -5 19 -12 55 -15 80 -3 25 -8
63 -11 85 -3 22 -7 51 -10 65 -22 121 -22 585 0 697 3 12 7 47 11 78 6 62 45
259 70 357 56 220 179 458 357 691 86 113 95 123 258 288 136 138 331 306 522
450 46 35 85 65 88 69 28 33 544 370 566 370 3 0 19 9 35 21 16 11 29 17 29
12 0 -4 4 -3 8 2 7 10 109 61 202 103 212 93 433 154 650 180 87 10 495 9 595
-1 93 -10 140 -16 177 -23 15 -3 39 -7 55 -9 191 -25 543 -117 807 -211 285
-102 658 -273 800 -368 70 -47 182 -150 257 -236 43 -50 159 -209 159 -219 0
-5 4 -11 9 -13 7 -2 148 -219 196 -300 35 -59 76 -124 124 -196 31 -46 61 -91
66 -100 6 -10 32 -51 59 -92 252 -382 365 -684 334 -889 -24 -156 -126 -270
-426 -476 -199 -136 -558 -329 -992 -533 -47 -22 -134 -63 -195 -92 -292 -138
-510 -233 -720 -313 -163 -62 -429 -146 -515 -163 -14 -3 -41 -9 -60 -14 -85
-22 -272 -55 -375 -65 -33 -4 -71 -8 -84 -10 -141 -23 -620 -23 -771 0 -14 2
-47 7 -75 11 -27 3 -59 8 -70 10 -11 3 -36 7 -55 10 -80 13 -231 58 -324 95
-253 101 -429 261 -496 451 -89 255 -40 647 136 1067 196 466 532 864 989
1169 187 124 447 262 640 341 44 17 89 36 100 41 85 40 398 124 507 137 118
14 348 9 419 -10 148 -39 251 -98 364 -212 159 -159 194 -347 111 -588 -30
-85 -56 -139 -108 -226 -120 -199 -225 -328 -448 -551 -178 -178 -240 -233
-540 -473 -8 -7 -61 -45 -117 -85 -110 -79 -133 -105 -140 -162 -9 -62 13
-108 65 -141 65 -41 104 -39 183 12 111 72 408 305 533 418 232 211 398 383
533 553 348 439 463 858 324 1188 -100 239 -355 461 -621 540 -81 24 -87 25
-181 39 -63 10 -361 8 -409 -2 -14 -3 -41 -8 -60 -11 -458 -68 -1125 -383
-1570 -740 -465 -374 -803 -879 -965 -1441 -47 -165 -68 -272 -82 -416 -44
-478 109 -817 475 -1054 153 -98 410 -195 607 -230 17 -2 41 -7 55 -10 136
-29 392 -49 605 -48 132 0 350 10 395 17 14 3 52 7 85 10 33 4 76 9 95 11 72
11 176 28 195 32 11 2 40 8 65 13 190 38 418 105 610 177 36 14 70 26 75 27
12 4 19 6 180 72 72 29 148 60 170 70 22 10 42 18 45 19 3 0 41 18 84 38 43
20 80 37 82 37 1 0 63 29 136 63 73 35 165 79 203 97 691 326 1011 510 1300
746 119 97 181 161 234 244 35 53 81 165 87 210 1 8 5 33 9 55 10 54 10 169 1
230 -4 28 -9 59 -11 70 -8 57 -44 184 -65 230 -5 11 -21 49 -36 85 -58 144
-176 350 -340 595 -44 66 -140 216 -213 333 -249 399 -417 608 -607 754 -195
150 -680 369 -1139 514 -207 66 -556 148 -679 160 -16 1 -39 5 -50 8 -12 3
-50 8 -86 11 -36 4 -76 8 -90 11 -14 2 -79 6 -145 10 -66 3 -135 7 -152 8 -18
2 -34 2 -35 1z"/>
</g>
</svg>
