<svg width="286" height="30" viewBox="0 0 286 30" fill="none" xmlns="http://www.w3.org/2000/svg">
<path d="M43.947 28.8649L30.9153 29.06L37.6215 1.331L50.7649 1.22614L48.9817 7.71416L58.8245 1.331L64.0255 1.22614L53.1708 8.22011L59.885 28.8649L57.1434 29.06L50.7649 9.84271L47.6875 11.6891L43.947 28.8649Z" fill="#364746"/>
<path d="M106.5 28.8649L93.4685 29.06L100.175 1.331L113.318 1.22614L111.535 7.71416L121.378 1.331L126.579 1.22614L115.724 8.22011L122.438 28.8649L119.697 29.06L113.318 9.84271L110.241 11.6891L106.5 28.8649Z" fill="#364746"/>
<path d="M199.793 28.8649L186.761 29.06L193.467 1.331L206.61 1.22614L204.827 7.71416L214.67 1.331L219.871 1.22614L209.016 8.22011L215.731 28.8649L212.989 29.06L206.61 9.84271L203.533 11.6891L199.793 28.8649Z" fill="#364746"/>
<path fill-rule="evenodd" clip-rule="evenodd" d="M77.1013 29.06C68.5684 29.06 64.0581 24.0252 64.0581 17.439C64.0581 9.23109 70.6409 1.59987 78.3204 1.38906C86.7328 1.15813 93.4359 5.62611 93.4359 13.0914C93.4359 21.9492 85.9593 29.06 77.1013 29.06ZM77.2741 14.9127C78.1895 11.0862 79.1248 7.17717 79.7831 4.11116C83.1391 4.19074 91.1348 7.12068 90.6085 13.7648C89.7106 25.0995 78.7783 26.4524 74.6307 26.4524C75.1762 23.6809 76.2118 19.3524 77.2741 14.9127Z" fill="#364746"/>
<path fill-rule="evenodd" clip-rule="evenodd" d="M170.394 29.06C161.861 29.06 157.35 24.0252 157.35 17.439C157.35 9.23109 163.933 1.59987 171.613 1.38906C180.025 1.15813 186.728 5.62611 186.728 13.0914C186.728 21.9492 179.252 29.06 170.394 29.06ZM170.566 14.9127C171.482 11.0862 172.417 7.17717 173.075 4.11116C176.431 4.19074 184.427 7.12068 183.901 13.7648C183.003 25.0995 172.071 26.4524 167.923 26.4524C168.469 23.6809 169.504 19.3524 170.566 14.9127Z" fill="#364746"/>
<path d="M30.8826 3.99437L30.3781 6.61937C30.3781 6.61937 22.8826 1.7058 17.0764 4.53541C10.9915 7.50087 25.5991 14.4939 24.571 21.3513C23.8242 26.3329 18.909 29.0601 14.0572 29.0601C5.94839 29.0601 0.00927734 24.2083 0.00927734 24.2083L0.262977 21.3513C0.262977 21.3513 10.7249 28.9641 13.7174 25.3837C16.0793 22.558 7.5021 18.8196 7.73209 11.155C7.92746 4.64463 14.3598 1.57526 20.8553 1.09306C26.678 0.660801 30.8826 3.99437 30.8826 3.99437Z" fill="#364746"/>
<path fill-rule="evenodd" clip-rule="evenodd" d="M139.395 29.06H126.611L132.936 1.4745C132.936 1.4745 144.367 1.24457 148.082 1.24457C153.592 1.24457 157.811 4.91954 157.271 11.2673C156.414 21.3405 147.614 23.2061 142.492 23.482C145.664 26.0785 149.269 29.06 149.269 29.06H145.063L140.624 24.4686L139.395 29.06ZM144.362 8.55212C144.74 6.9191 145.117 5.29037 145.497 3.66607C150.749 3.66607 154.581 6.31077 154.581 9.79871C154.581 16.5446 151.477 20.1092 141.428 20.9258C142.457 16.7759 143.412 12.6505 144.362 8.55212Z" fill="#364746"/>
<path d="M246.153 29.06H219.904L225.936 0.828842L252.499 0.376526L251.829 2.97821L238.411 3.25842L237.305 8.40335L250.116 8.1957L249.377 11.0839L236.548 11.3742L233.072 26.497H246.683L246.153 29.06Z" fill="#364746"/>
<path d="M255.307 29.0601H252.532L258.95 0.796237L279.669 14.4107L283.181 0.455791L285.991 0.280029L279.021 29.0601L258.516 15.7853L255.307 29.0601Z" fill="#364746"/>
</svg>
