<?xml version="1.0" standalone="no"?>
<!DOCTYPE svg PUBLIC "-//W3C//DTD SVG 20010904//EN"
 "http://www.w3.org/TR/2001/REC-SVG-20010904/DTD/svg10.dtd">
<svg version="1.0" xmlns="http://www.w3.org/2000/svg"
 width="252.000000pt" height="252.000000pt" viewBox="0 0 252.000000 252.000000"
 preserveAspectRatio="xMidYMid meet">
<metadata>
Created by potrace 1.11, written by Peter Selinger 2001-2013
</metadata>
<g transform="translate(0.000000,252.000000) scale(0.100000,-0.100000)"
fill="#000000" stroke="none">
<path d="M1334 1931 c-16 -14 -38 -39 -49 -55 -11 -16 -29 -41 -40 -56 -59
-81 -145 -214 -167 -260 -7 -14 -21 -34 -30 -44 -10 -11 -18 -24 -18 -28 0 -5
-11 -26 -25 -46 -32 -47 -32 -39 3 39 40 89 45 103 44 112 -1 4 2 7 8 7 5 0
10 6 10 13 0 6 7 25 15 40 9 19 10 25 2 21 -9 -5 -9 -3 1 7 19 21 15 77 -7 89
-33 17 -64 -3 -133 -89 -23 -27 -29 -30 -34 -17 -11 29 -59 19 -92 -18 -17
-19 -33 -44 -37 -55 -3 -12 -11 -21 -16 -21 -5 0 -9 -6 -9 -14 0 -8 -4 -16 -8
-18 -5 -1 -20 -21 -35 -43 -22 -32 -27 -36 -27 -18 0 83 -126 -32 -146 -135
-7 -36 10 -44 32 -14 12 15 12 13 4 -13 -5 -16 -17 -51 -26 -76 -35 -92 13
-109 74 -26 21 28 51 73 66 99 26 45 60 83 37 42 -5 -11 -26 -52 -45 -93 -27
-57 -33 -78 -25 -92 5 -11 17 -19 27 -19 18 1 52 23 52 34 0 4 20 41 45 82 25
40 45 78 45 84 0 5 5 10 10 10 6 0 10 4 10 10 0 10 97 168 113 185 7 7 8 7 5
0 -2 -5 -9 -21 -15 -35 -6 -14 -27 -59 -46 -100 -34 -73 -49 -107 -107 -240
-26 -60 -41 -97 -45 -110 0 -3 -11 -25 -24 -50 -36 -72 -49 -116 -39 -134 12
-22 55 -20 68 3 5 11 16 26 22 33 7 7 29 43 48 78 19 36 55 100 81 142 26 42
50 86 54 97 3 12 11 21 16 21 5 0 9 7 9 15 0 8 5 15 11 15 5 0 8 3 5 8 -2 4
18 40 45 80 27 41 49 80 49 87 0 7 3 15 8 17 4 2 23 29 42 61 19 31 38 57 42
57 12 0 10 -13 -8 -38 -25 -35 -144 -272 -137 -272 3 0 -1 -8 -9 -17 -25 -29
-89 -163 -83 -173 4 -6 0 -10 -7 -10 -8 0 -37 -48 -65 -107 -103 -213 -107
-233 -52 -233 22 0 32 7 41 25 6 14 15 25 20 25 4 0 8 6 8 13 0 7 8 22 18 33
19 21 66 96 95 150 9 19 22 34 27 34 6 0 10 7 10 15 0 8 13 34 29 57 85 128
247 374 250 383 2 5 7 12 11 15 4 3 23 30 43 60 21 30 37 52 37 48 0 -10 -63
-141 -71 -148 -3 -3 -12 -20 -20 -37 -8 -18 -17 -33 -21 -33 -5 0 -7 -3 -6 -7
2 -5 -29 -73 -69 -153 -83 -168 -127 -262 -125 -272 1 -3 -5 -12 -13 -18 -8
-7 -15 -20 -15 -30 0 -9 -3 -20 -7 -23 -17 -18 -39 -104 -32 -125 22 -59 85
-23 159 91 52 79 71 105 103 139 9 10 17 23 17 29 0 6 14 27 30 46 17 19 28
38 25 44 -4 5 1 12 9 15 8 3 31 29 51 57 19 29 43 63 52 77 41 59 113 151 113
143 0 -14 -45 -118 -52 -121 -5 -2 -8 -12 -8 -22 0 -9 -6 -23 -13 -29 -17 -13
-40 -88 -32 -101 3 -5 -3 -14 -14 -19 -11 -6 -23 -20 -26 -32 -4 -11 -27 -63
-51 -114 -24 -52 -44 -100 -44 -107 0 -7 -7 -22 -15 -32 -8 -11 -15 -28 -15
-38 0 -10 -4 -18 -9 -18 -12 0 -24 -74 -16 -100 4 -11 10 -18 15 -15 5 3 10 0
12 -7 6 -18 88 37 88 59 0 4 20 35 45 68 25 33 48 68 51 77 3 10 9 18 13 18 5
0 14 14 21 30 7 17 16 30 21 30 5 0 9 7 9 15 0 8 5 15 11 15 5 0 8 4 4 9 -3 6
1 13 8 18 7 4 28 29 47 55 33 48 55 61 27 16 -9 -12 -17 -32 -19 -43 -2 -11
-6 -22 -10 -25 -12 -10 -44 -115 -44 -145 1 -24 6 -31 25 -33 28 -4 73 40 163
160 32 43 71 91 87 107 23 23 26 31 14 35 -27 11 -82 -33 -156 -122 -35 -43
-34 -30 3 52 16 36 26 66 22 66 -4 0 -2 4 3 8 14 9 65 142 65 167 0 23 -36 50
-45 35 -4 -6 -10 -8 -15 -5 -9 6 -120 -114 -120 -130 0 -6 -77 -115 -110 -155
-11 -14 -20 -28 -20 -32 0 -5 -4 -8 -10 -8 -5 0 -2 17 7 38 30 70 75 167 84
182 5 8 12 22 15 30 3 8 14 35 25 59 11 24 17 46 14 49 -3 3 1 12 9 21 8 9 16
23 18 31 2 8 5 17 8 20 3 3 13 22 23 43 44 96 -5 162 -79 105 -37 -28 -43 -35
-75 -78 -15 -19 -35 -44 -46 -55 -10 -11 -26 -33 -36 -48 -10 -16 -25 -36 -33
-45 -30 -34 -84 -111 -84 -121 0 -5 -3 -11 -7 -13 -12 -5 -89 -110 -107 -145
-9 -17 -20 -34 -25 -37 -5 -3 17 45 48 107 31 61 65 132 76 157 11 25 44 88
72 141 29 53 53 104 53 113 0 10 5 14 10 11 6 -3 10 -1 10 5 0 10 50 119 113
248 15 32 -1 74 -32 79 -37 5 -107 -70 -236 -257 -33 -47 -63 -89 -67 -95 -5
-5 -29 -43 -55 -83 -25 -39 -48 -70 -50 -69 -4 4 115 237 128 252 5 5 9 17 9
27 0 10 4 18 8 18 4 0 13 12 19 28 7 15 16 34 21 42 56 95 83 197 53 201 -3 0
-13 2 -22 4 -8 1 -29 -9 -45 -24z m-116 -301 c-11 -18 -28 -27 -28 -16 0 6 30
36 36 36 2 0 -1 -9 -8 -20z m-75 -295 c-3 -9 -8 -14 -10 -11 -3 3 -2 9 2 15 9
16 15 13 8 -4z"/>
</g>
</svg>
