<svg xmlns="http://www.w3.org/2000/svg" viewBox="0 0 107.58 235.02"><title>hello</title><g id="Layer_2" data-name="Layer 2"><g id="Layer_1-2" data-name="Layer 1"><g id="Shape_47" data-name="Shape 47"><path d="M45,91.86c-1.84,1.46-4.41-.52-5.77-2.43-9.4-13.19-11.65-30-13.19-46.17a49,49,0,0,1-.17-11.54,5.35,5.35,0,0,1,1.29-3.17,2.13,2.13,0,0,1,3.07,0,3.23,3.23,0,0,1,.31,2.2A99,99,0,0,0,45,91.86Z"/><path d="M5.28,26.55c-1.66,2.07-1.22,5.07-.75,7.69.17,1-.12,2.42-1.08,2.23C.4,33.82-1.2,29,1.08,25.65A3.28,3.28,0,0,1,4,24C5.11,24.15,6,25.64,5.28,26.55Z"/><path d="M8.7,27.45a3.78,3.78,0,0,1,2-1.9,1.83,1.83,0,0,1,2.31,1,3.44,3.44,0,0,1-.53,2.25,8.16,8.16,0,0,0-.08,6.34c.4,1-.82,2-1.87,1.83a3.33,3.33,0,0,1-2.18-2.17A8.53,8.53,0,0,1,8.7,27.45Z"/><path d="M48,21.82l1.35,2.71c.52,1.06.76,2.77-.39,3a31,31,0,0,1-7.54-9.88,3.6,3.6,0,0,1,4.1.53A10.43,10.43,0,0,1,48,21.82Z"/><path d="M38.88,20.33A20.72,20.72,0,0,1,42,25.92a2,2,0,0,1,.17.86,1.37,1.37,0,0,1-1.76.94,3.68,3.68,0,0,1-1.73-1.4,42.12,42.12,0,0,1-3.48-5,2.37,2.37,0,0,1-.48-1.52,1.67,1.67,0,0,1,2.1-1.12A4.17,4.17,0,0,1,38.88,20.33Z"/><path d="M77,173.82a65.61,65.61,0,0,0,18.12-18.48c-9.43-5.24-14.17-17.63-10.65-27.83.62-1.81,2.44-3.86,4-2.83,1,.65,1,2.1,1,3.3-.24,3.48-.49,7-.73,10.45,5.65-.49,8.3-7.37,8.24-13A34.63,34.63,0,0,0,85,99.87c-1.3-1.12.31-3.45,2-3.33s3,1.59,4,2.93l7.42,9.45c-2-7.3-4.15-14.78-8.63-20.89S78,77.37,70.47,78.47c-5.94.88-12.18.7-17.73-1.61S42.45,69.86,41.07,64c-1.24-5.31.39-11,3.35-15.56s7.15-8.22,11.43-11.6c3.61-2.84,7.52-5.81,9-10.16,1.77-5.22-.46-11.07.9-16.41,2.2-8.65,13.55-12.41,21.83-9.07s13.6,11.56,16.64,20c3.64,10.08,4.72,21.37,1.29,31.52S93.65,71.59,83.16,73.8c13.53,13.36,22.79,31.45,23.69,50.45s-7.17,38.62-22.4,50c-2,1.48-2,4.38-1.85,6.84.92,14.45,1.87,29.09,6.47,42.81a14.87,14.87,0,0,1,1,4.38c.09,4.94-6.47,8.52-10.58,5.78s-3.3-10.18,1.3-12c1.15-.45,1.2-2,1-3.28q-2.34-18.68-4.7-37.37a1.89,1.89,0,0,0-.38-1.09,1.93,1.93,0,0,0-1.75-.29l-5.8.94a2.57,2.57,0,0,0-2.65,3.36l1.86,26.16c.32,4.42.68,9,2.78,12.9a19.75,19.75,0,0,1-13.78,9.26,7.87,7.87,0,0,1-5.14-.6c-3.48-2-3.06-7.64,0-10.26s7.45-2.85,11.42-2.3q-1.17-17.85-2.35-35.7c-.14-2.17-.51-4.72-2.43-5.74-14.43-7.63-22.23-24.52-22.68-40.84s5.36-32.17,12.47-46.86c1.38-2.86,2.88-5.78,5.35-7.77s6.15-2.83,8.83-1.13c-9.12,7-14,18.13-17.17,29.13-3.42,11.68-5.46,24.07-3.2,36s9.4,23.45,20.42,28.62a13.67,13.67,0,0,0,7.19,1.58,15.43,15.43,0,0,0,6.83-3M70.45,25.06c-1.36,7.47-8,12.63-13.76,17.53S45,54.06,46,61.59c.81,6.33,6.59,11.2,12.82,12.6s12.75-.07,18.74-2.3c9.45-3.52,18.67-9.52,22.62-18.8,2.53-5.92,2.65-12.59,1.92-19-1.23-10.64-5.43-21.86-14.64-27.33C83.15,4.23,77.1,3.39,73.55,6.9c-4.48,4.43-2,12-3.1,18.16m29.87,108c-.55,2.77-1.2,5.75-3.28,7.66s-6.08,1.94-7.24-.64a12.45,12.45,0,0,0,1.47,6.16c1.09,2,3.72,3.84,5.5,2.4A4.42,4.42,0,0,0,97.9,147a56.88,56.88,0,0,0,4.79-15.55c.22-1.37,0-3.29-1.37-3.46-.34,1.69-.67,3.39-1,5.08M64,224.25c.27-.78-.48-1.61-1.3-1.75a4.36,4.36,0,0,0-2.38.54c-2.23,1-4.75,2.31-5.15,4.7A10.44,10.44,0,0,0,63.45,225a1.88,1.88,0,0,0,.56-.75m20,6.2a1.46,1.46,0,0,0,.8-2.13,3.37,3.37,0,0,0-2.19-1.4A2.32,2.32,0,0,0,84,230.67Z"/></g></g></g></svg>