<svg xmlns="http://www.w3.org/2000/svg" viewBox="0 0 735.48 449.89"><defs><style>.cls-1{fill:#010101;}</style></defs><title>Asset 2</title><g id="Layer_2" data-name="Layer 2"><g id="Layer_1-2" data-name="Layer 1"><path class="cls-1" d="M173.15,417.39c-.27-3.19,2.38-5.79,4.85-7.83a210.09,210.09,0,0,1,41.48-26.74c4.31-2.12,10.35-3.72,13.23.13,4.57,6.11-6.36,14.86-2.83,21.64,64.55-14.07,117.53-62,152.88-117.86,6.28-9.92,12.1-20.13,18.7-29.84,1.75-2.57,3.86-5.31,6.91-5.89s6.64,2.73,5.08,5.42c-20.05,34.64-42.56,68.25-71.24,96.16s-64,50-103.15,58.27a18.14,18.14,0,0,0-7.43,32c2.36,1.86.44,6.1-2.49,6.81s-5.88-.81-8.5-2.28l-41.06-22.95c-2.9-1.63-6.16-3.77-6.43-7.09m12.09-1.67c-.21,1.44,1.35,2.43,2.68,3L213,429.92c.9.4,2.14.72,2.73-.07a2.28,2.28,0,0,0,.32-1.12l3.27-33.46a130.79,130.79,0,0,0-32.59,18.48A3.37,3.37,0,0,0,185.24,415.72Z"/><path class="cls-1" d="M79.38,14.17,7.61,11.63c-2.5-.09-5.37-.36-6.84-2.39C-1,6.75.58,3,3.25,1.42s5.94-1.48,9-1.37L158.7,5.18c4.45.15,9.43.55,12.35,3.9s.82,10.32-3.57,9.59a317.06,317.06,0,0,0-70.24-3.79c-2.69.16-6.06.91-6.59,3.55q-8.78,43.85-17.53,87.69c-1.09,5.46-5.81,12.56-10.35,9.34-2.62-1.86-2.27-5.78-1.65-8.93Q70.26,60.36,79.38,14.17Z"/><path class="cls-1" d="M608.32,171.73c2.39-2.25,4.87-4.56,7.95-5.68s7-.71,9,1.83c2.51,3.07,1.44,7.58.47,11.42a98.78,98.78,0,0,0-2.39,34.89c-2.61,2.7-7.56,1.14-9.56-2s-1.91-7.19-1.76-10.94l.84-20.32-23.62,23.7c-1.55,1.54-3.26,3.18-5.42,3.46-3.35.44-6.28-2.68-7-6s0-6.71.45-10.06a51.52,51.52,0,0,0-.84-18,4.93,4.93,0,0,0-1.79-3.29c-1.76-1.1-4,.22-5.57,1.61a45.37,45.37,0,0,0-14.4,25.88c-.85,4.87-2.64,11.46-7.56,11-2.82-.25-4.78-3.17-5.05-6s.69-5.6,1.44-8.34a56.65,56.65,0,0,0-2-35.41c-1.09-2.76-2.41-5.53-2.46-8.49s1.66-6.23,4.57-6.8a57.76,57.76,0,0,1,11.22,29.61c4.37-6.92,10.22-14.68,18.41-14.47,6.66.17,12.07,6,13.93,12.43s1,13.23.07,19.83Z"/><path class="cls-1" d="M281.7,103.36c-4-.17-7.47,2.91-9.07,6.52s-1.71,7.7-1.78,11.66a21.77,21.77,0,0,0,.5,6.4,11.16,11.16,0,0,0,8.41,7.75c3,.59,6.18-.09,9.14.68s5.69,4.12,4.12,6.75c-1,1.62-3.06,2.11-4.93,2.39-7.17,1.09-15.41,1-20.54-4.09-2.52-2.53-5.38-6.49-8.62-5-7.23,3.37-14.63,6.79-22.57,7.5s-16.65-1.83-21.26-8.33-4.08-15.54,0-22.29,11.1-11.28,18.58-13.67c9.53-3.05,20.89-2.6,28.4,4,2.78-3.79,6.3-7.57,10.94-8.29s10,3.48,8.73,8m-54.32,13.3c-2.61,2.65-4.78,6.26-4,9.89.69,3.39,3.83,5.88,7.18,6.72s6.89.35,10.27-.37a83.32,83.32,0,0,0,13.41-4.08,8.17,8.17,0,0,0,3.1-1.84c1.34-1.46,1.49-3.63,1.57-5.62.1-2.39.19-4.77.29-7.16a5.14,5.14,0,0,0-.53-3.11,4.7,4.7,0,0,0-2.66-1.61A29,29,0,0,0,227.38,116.66Z"/><path class="cls-1" d="M147.34,113.56a125.66,125.66,0,0,0-4.27-70.27c.71-3.74,6.22-4.64,9.24-2.33s4.07,6.33,4.82,10.06a193.09,193.09,0,0,1,3.79,37.61c4.85-5.58,10.34-11.53,17.66-12.55,9.19-1.29,17.8,6.12,21.08,14.8s2.5,18.29,1.68,27.53l-.87,9.81c-.32,3.61-1.45,8.15-5,8.69-2.42.37-4.72-1.57-5.61-3.85s-.71-4.83-.51-7.27q.83-10.56,1.67-21.13c.44-5.65.37-12.44-4.36-15.56-5.93-3.91-13.68,1.35-18,7a62.38,62.38,0,0,0-10.1,20.27c-1.21,4.2-3.61,9.69-7.9,8.85C146.19,124.37,146.32,118,147.34,113.56Z"/><path class="cls-1" d="M415.86,126.49c-1.1,2.74.42,5.8,2.17,8.18,10.38,14.07,30.18,20.25,37.18,36.27,1,2.3,1.71,4.89,1.08,7.32-1.4,5.4-8.2,7.18-13.77,7a46.71,46.71,0,0,1-31.25-14c-2-2-3.85-5-2.47-7.51,1.1-2,3.86-2.47,6-1.76s3.88,2.29,5.66,3.7a42.17,42.17,0,0,0,28.67,8.93c-1.86-9.34-12.29-13.67-20.57-18.39a67.25,67.25,0,0,1-19-16.23c-4-5-7.47-11.41-5.86-17.63,1.84-7.14,9.66-11.14,17-12,6.78-.77,14.43.79,18.52,6.25a6.68,6.68,0,0,1,1.53,5.33c-.45,1.86-2.62,3.33-4.34,2.49A24.06,24.06,0,0,0,423,122.23C420.11,122.58,416.94,123.78,415.86,126.49Z"/><path class="cls-1" d="M676,197.7c-2.82,5.92-9,9.41-14.73,12.53l-8.08,4.35c1.24,2.25,4.37,2.37,6.93,2.19l20.07-1.34c3.26-.22,7.86.9,7.41,4.13-.29,2.06-2.63,3.06-4.63,3.65-7.65,2.29-15.51,4.39-23.49,4.06s-16.21-3.43-21-9.82c-4.62-6.16-5.4-14.75-2.78-22s8.33-13.14,15.09-16.83c3.84-2.09,8.17-3.55,12.52-3.16A15.58,15.58,0,0,1,676,197.7m-9.29-10.24c-1.49-1.4-3.84-1.28-5.83-.78a21.93,21.93,0,0,0-16,18.13c-.13,1.11.23,2.67,1.35,2.6a2.12,2.12,0,0,0,.75-.27,130.66,130.66,0,0,0,15.9-9.64,13.4,13.4,0,0,0,4.36-4.31C668.16,191.37,668.17,188.87,666.66,187.46Z"/><path class="cls-1" d="M720.92,199.54a18.23,18.23,0,0,1,14,15.32A21.2,21.2,0,0,1,731.2,229c-2,3-4.88,5.69-8.4,6.65s-7.74-.18-9.66-3.28l-7-11.4a22.49,22.49,0,0,1-2.61-5.18,12.75,12.75,0,0,1,4-13,15.8,15.8,0,0,1,13.45-3.26m-7.72,14.73a9.51,9.51,0,0,0,.56,4.46c.91,3,2.72,6.55,5.87,6.53,2,0,3.74-1.68,4.66-3.51,1.74-3.44,1.22-8.18-1.87-10.48S713.92,210.48,713.2,214.27Z"/><path class="cls-1" d="M308.76,115.06c-1.56-1-3.62-.33-5.5-.29-4.65.12-8.52-6-5.54-9.62,2.2-2.64,6.21-2.48,9.65-2.37s7.63-.56,8.87-3.77L323,81.37c1.71-4.43,5.26-9.82,9.76-8.31,2.5.84,3.86,3.7,3.79,6.34s-1.23,5.1-2.38,7.47l-5,10.33c-.94,2-1.9,4.18-1.18,6.24s2.74,3.11,4.64,4,4,2,4.8,3.88-.62,4.8-2.68,4.35c-2.66-.59-5.41-1.17-8.08-.61s-5.22,2.61-5.45,5.33c-.53,6-1,12.25,1.24,17.84s8.15,10.19,14,8.86c2.09-.47,4.36-1.61,6.2-.53,2.72,1.59,1.25,5.92-1.18,7.92-7.63,6.3-20.12,2.91-26.1-5s-6.69-18.63-5.34-28.44C310.39,118.93,310.57,116.27,308.76,115.06Z"/><path class="cls-1" d="M735.46,125.61q-2.52,22.08-5,44.14a5.38,5.38,0,0,1-.68,2.41c-1.14,1.71-4,1.44-5.4,0s-1.89-3.63-2.19-5.67a91.35,91.35,0,0,1,2-36.47c.78-3,1.92-6.17,4.59-7.68S735.8,122.56,735.46,125.61Z"/><path class="cls-1" d="M380.13,88.55a7.77,7.77,0,0,1,1.35-3.39c2.22-2.64,6.95-.93,8.36,2.21s.58,6.78-.27,10.12l-4.33,17c-.94,3.67-3.17,8.25-6.9,7.62-4.07-.69-4.24-6.45-3.35-10.48Q377.57,100.07,380.13,88.55Z"/></g></g></svg>