<svg xmlns="http://www.w3.org/2000/svg" viewBox="0 0 60.3 93.5"><defs><style>.cls-1{fill:#f8f8f8;fill-rule:evenodd;}</style></defs><title>Asset 2</title><g id="Layer_2" data-name="Layer 2"><g id="Layer_1-2" data-name="Layer 1"><path class="cls-1" d="M51.9,51.9c-3.4,5.1-7,10.3-7.2,17.3a3.64,3.64,0,0,1-.9,2.3H16.6a3.73,3.73,0,0,1-1-2.3c-.2-7.1-3.8-12.3-7.2-17.3C4.3,45.9,0,39.6,0,28.6.1,12.9,13.6,0,30.2,0S60.3,12.9,60.3,28.6c0,11.1-4.3,17.3-8.4,23.3ZM43,73.3a3.7,3.7,0,0,1,1.4,2.9,4,4,0,0,1-1,2.6H17a4,4,0,0,1-1-2.6,3.5,3.5,0,0,1,1.5-2.9Zm.6,7.3a3.85,3.85,0,0,1,.8,2.4,3.42,3.42,0,0,1-1.3,2.8H17.3A3.72,3.72,0,0,1,16,83a3.58,3.58,0,0,1,.9-2.4Zm-5.4,7a8.37,8.37,0,0,1-16,0Z"/></g></g></svg>