<svg xmlns="http://www.w3.org/2000/svg" viewBox="0 0 345.03 343.9"><defs><style>.cls-1{fill:#010101;}</style></defs><title>Shape 51</title><g id="Layer_2" data-name="Layer 2"><g id="Layer_1-2" data-name="Layer 1"><g id="Shape_51" data-name="Shape 51"><path class="cls-1" d="M200.36,242.75a80.86,80.86,0,0,1-22.82,7.06c-8.57,1.44-17.39,1.9-25.92.26C122.33,244.45,102,212.9,105,183.23S130.89,128,158.8,117.55c5-1.87,10.55-3.32,15.53-1.46,14.32,5.36,28.72,11.56,39.92,22a66.4,66.4,0,0,1,20.45,56.07c-2.63,20.49-15.86,39.39-34.34,48.62m16.45-34.57c3.4-7.25,4.5-15.37,4.73-23.37s-.39-16-3.71-23.09A46.38,46.38,0,0,0,207.36,148c-7.2-6.84-15.93-12.44-25.7-14.26s-20.63.59-27.54,7.73c-2.29,2.37-5.19,5.5-8.23,4.21-5.89-2.51-12,2.92-15.63,8.21-7.42,10.88-12.31,23.71-12.53,36.87s4.54,26.62,14,35.73c17,16.3,45.56,15.13,65.48,2.59C205.43,223.88,212.7,216.92,216.81,208.18Z"/><path class="cls-1" d="M282.71,77.58c-3,7.84-9.73,14.43-17.92,16.32S247.16,92.35,243,85.07c-4.77-8.25-.36-19.84,8.06-24.32s19.28-2.51,26.88,3.25c3.08,2.34,5.89,5.67,5.79,9.53A12.12,12.12,0,0,1,282.71,77.58Z"/><path class="cls-1" d="M236.49,343.9l-54.68-.07c-30.95,0-62.26-.12-92.33-7.47-20-4.9-40.17-13.66-52.82-30C24.79,291.1,21,271.19,18.14,252A908,908,0,0,1,8.33,123.29C8.2,98.08-6.08,72.28,3,48.78,8.13,35.69,19.88,26.09,32.76,20.49s27-7.7,40.85-9.76C111.44,5.15,149.46-.45,187.7,0s77,7.32,110.77,25.33C306.77,29.79,314.85,35,321,42.1c11.39,13.16,14.92,31.23,17.37,48.47,9.72,68.29,9.11,138.24-4.06,206-3.76,19.38-20.73,34.05-39.31,40.7s-38.78,6.7-58.52,6.68m-70.31-14.6,74.64.93c16.4.2,33.2.34,48.66-5.14s29.55-17.83,32.33-34A637.61,637.61,0,0,0,324.1,89.28C322.65,79.54,320.89,69.59,316,61c-4.64-8.14-11.82-14.55-19.53-19.87C260.65,16.41,214.37,13.7,170.84,14.62c-38.69.82-77.52,3.88-115.17,12.8C39.26,31.31,20.35,39.24,17.43,55.85a46,46,0,0,0-.23,10.49q1.35,25.25,2.72,50.5C22.2,159,24.48,201.27,29.73,243.2c2.7,21.57,6.93,44.57,22.27,60,10.08,10.11,23.87,15.68,37.71,19.18C114.59,328.63,140.52,329,166.18,329.3Z"/></g></g></g></svg>