<svg xmlns="http://www.w3.org/2000/svg" viewBox="0 0 293.59 293.59"><defs><style>.cls-1{fill:#f48278;}</style></defs><title>logo</title><g id="Layer_2" data-name="Layer 2"><g id="Layer_1-2" data-name="Layer 1"><path class="cls-1" d="M0,0V293.59H293.59V0ZM213.08,232.18q-2.87,1.59-10.93,1.59-19.77,0-25-.61t-7.2-4q-2-3.34-2-11.29V174.81q0-24.9-4.57-33.39t-14.84-8.48q-8.66,0-13.67,5.07t-5,21.18v24.53q0,15.39.61,33.33H145a19.32,19.32,0,0,1,2.08,9q0,4.28-1.77,6t-6.9,1.71H80.94a24.47,24.47,0,0,1-2.2-9.64c0-2.52.57-4.34,1.71-5.44s3-1.64,5.49-1.64h8.91q.62-20.15.61-37.85V110.36c0-3.18-.14-7.16-.42-12A66.43,66.43,0,0,0,93.27,86q-1.35-5.18-4.7-6.71a21.57,21.57,0,0,0-8.85-1.53,25.81,25.81,0,0,1-2.08-10q0-5.11,3.79-6.53t24.65-1.4q12.94,0,17.64,1t5.44,3.84a33.69,33.69,0,0,1,.73,7.94V121a98.92,98.92,0,0,1,18.37-7.88,68.78,68.78,0,0,1,21.42-3.48q16,0,24.36,7.57t8.36,30.52q0,60.06,2.2,64.76t9.52,4.58A23.58,23.58,0,0,1,216,226.2C216,229.13,215,231.13,213.08,232.18Z"/></g></g></svg>