<svg width="1184" height="47" viewBox="0 0 1184 47" fill="none" xmlns="http://www.w3.org/2000/svg">
<path d="M12.9128 1.98178C-23.1016 31.2435 28.9887 27.3297 48.923 27.3297C73.5583 27.3297 100.855 28.0857 125.168 31.7555C153.407 36.018 177.77 41.8142 206.643 41.8142C222.076 41.8142 235.767 34.5719 251.103 34.5719C265.686 34.5719 278.445 41.8142 293.349 41.8142C347.294 41.8142 401.202 24.4423 453.886 15.6616C486.386 10.2449 507.498 8.24873 539.787 18.0757C566.54 26.2179 593.507 30.9508 621.464 30.9508C646.39 30.9508 670.031 20.5783 693.685 12.8452C699.098 11.0756 717.842 -1.47389 712.595 0.774741C699.78 6.26711 724.032 22.9008 730.097 23.5074C757.099 26.2076 783.022 20.0874 809.561 20.0874C829.067 20.0874 862.31 8.7855 880.374 18.0757C892.775 24.453 889.524 30.9508 906.527 30.9508C919.825 30.9508 933.972 29.5138 946.963 32.7614C959.85 35.9832 969.748 45.0767 983.375 45.4353C999.578 45.8617 1015.85 45.4353 1032.06 45.4353C1056.73 45.4353 1081.45 41.8142 1106.49 41.8142C1129.39 41.8142 1167.28 50.0224 1182.54 30.9508" stroke="#FB6000" stroke-linecap="round" stroke-linejoin="round"/>
</svg>
