<?xml version="1.0" encoding="utf-8"?>
<!-- Generator: Adobe Illustrator 24.1.2, SVG Export Plug-In . SVG Version: 6.00 Build 0)  -->
<svg version="1.1" id="Layer_1" xmlns:serif="http://www.serif.com/"
	 xmlns="http://www.w3.org/2000/svg" xmlns:xlink="http://www.w3.org/1999/xlink" x="0px" y="0px" viewBox="0 0 1280 41.2"
	 style="enable-background:new 0 0 1280 41.2;" xml:space="preserve">
<style type="text/css">
	.st0{fill:none;stroke:#FB6000;stroke-width:1.3333;stroke-linecap:round;stroke-linejoin:round;stroke-miterlimit:1;}
</style>
<g transform="matrix(1,0,0,1,85.8738,0)">
	<path class="st0" d="M414.5,25.2c-2-1,3.6,2.8,5.6,3.8c3.8,1.9,10.9,1.6,15.1,1c14.3-2,31.7-12.2,38.2-25.1
		c1.8-3.7-24.6,8.2-5,13.1c21.3,5.3,46.2-8.7,60.3-4c2.6,0.9,24.9,18,31.1,21.1c1,0.5,4.8,0.7,6,1c23.3,5.8,30.1-18.6,33.1-20.1
		c11.7-5.9,24.6,11.9,34.2,15.1c14.4,4.8,24-10.1,38.2-3"/>
</g>
</svg>
