<svg width="5311" height="741" viewBox="0 0 5311 741" fill="none" xmlns="http://www.w3.org/2000/svg">
<path d="M199.894 0.64801C107.004 21.5008 89.5695 125.856 44.9198 199.209C7.548 260.605 -12.8703 375.868 11.5573 445.661C33.7623 509.104 95.3362 579.454 161.15 599.021C230.414 619.612 276.086 599.168 343.03 583.954C405.265 569.809 463.525 547.585 524.371 529.067C600.085 506.024 675.689 497.44 751.99 480.099C925.037 440.77 1042.54 578.116 1183.01 645.298C1283.51 693.36 1560.02 719.296 1596.81 572.115C1618.37 485.885 1485.73 508.962 1475.2 572.115C1465.56 629.963 1644.24 639.917 1681.83 639.917C1864.97 639.917 2008.69 532.186 2185.5 502.162C2262.32 489.117 2326.76 513.668 2388.9 560.277C2419.74 583.401 2437.93 614.078 2466.39 639.378C2497.67 667.18 2544.19 675.374 2580.47 695.879C2648.69 734.437 2751.18 758.501 2824.77 721.708C2920.24 673.972 2977.57 622.713 3052.39 547.901C3121.99 478.295 3204.93 422.192 3297.23 388.083C3378.49 358.052 3455.88 374.845 3539.37 378.398C3620.72 381.859 3667.44 423.253 3667.44 504.852C3667.44 574.694 3681.04 639.917 3764.84 639.917C3844.63 639.917 3933.27 646.546 4010.75 624.85C4068.78 608.603 4160.35 544.057 4160.35 475.256C4160.35 396.776 4020.64 430.192 4001.07 482.79C3970.8 564.129 4176.04 553.662 4217.38 552.744C4348.27 549.835 4483.61 406.984 4616.12 446.737C4689.09 468.628 4726.19 553.849 4798.54 581.801C4864.06 607.118 4937.1 602.709 5006.25 601.173C5140.87 598.181 5372.75 457.06 5294.67 300.91" stroke="#FB6000" stroke-linecap="round" stroke-linejoin="round"/>
</svg>
