<svg width="5544" height="823" viewBox="0 0 5544 823" fill="none" xmlns="http://www.w3.org/2000/svg">
<path d="M86.0327 1.25531C74.2987 21.7898 47.1756 60.676 57.4334 87.0532C67.4099 112.707 99.6072 118.022 120.352 102.306C148.765 80.7809 102.072 77.1126 86.5093 88.0065C60.8789 105.948 60.2933 127.372 60.2933 155.691C60.2933 174.164 72.4403 198.683 65.0599 215.75C53.5186 242.439 27.0369 265.119 19.301 292.968C11.9365 319.48 28.0159 331.56 37.8905 353.503C53.0804 387.259 27.8885 418.79 13.5811 447.404C-10.6236 495.814 6.88436 528.806 17.3944 576.101C22.734 600.129 17.9433 618.682 17.3944 642.833C16.5345 680.669 28.7757 679.954 58.3867 698.125C106.267 727.506 145.858 773.436 206.626 773.436C262.696 773.436 306.001 776.21 360.586 766.763C406.271 758.856 452.236 768.322 497.862 758.183C543.715 747.994 609.052 751.455 652.299 769.146C761.179 813.688 909.592 764.275 1016.46 734.351C1057.9 722.748 1139.51 719.772 1151.83 670.479C1168.01 605.762 1066.59 628.297 1073.18 687.638C1087.81 819.288 1251.4 716.613 1321.52 743.884C1416.21 780.706 1490.22 767.784 1587.5 737.21C1630.55 723.679 1587.5 651.704 1587.5 619C1587.5 604.755 1581.88 571.335 1604.66 571.335C1644.68 571.335 1594.4 620.27 1587.5 627.58C1562.67 653.87 1524.4 730.537 1587.5 730.537C1639.82 730.537 1673.33 744.463 1722.87 754.37C1764.35 762.668 1822.13 774.493 1862.05 756.753C1882.12 747.833 1903.84 759.002 1924.01 762.95C1962 770.382 1999.79 773.436 2038.41 773.436C2134.33 773.436 2230.56 764.856 2325.36 764.856C2371.71 764.856 2418.2 765.886 2464.54 764.856C2487.32 764.35 2521.96 761.123 2534.61 738.64C2548.9 713.241 2552.22 698.966 2587.04 709.564C2639.35 725.484 2661.9 797.752 2591.33 780.109C2536.56 766.417 2509.09 696.788 2457.87 688.592C2432.36 684.511 2400.51 685.34 2376.84 696.218C2363.33 702.423 2323.13 737.319 2310.1 724.817C2258.53 675.302 2404.3 662.825 2419.73 661.422C2483.24 655.65 2499.79 662.363 2557.01 690.975C2576.66 700.8 2597.9 699.259 2615.16 715.284C2634.19 732.949 2653.81 757.646 2677.13 769.623C2726.74 795.097 2788.73 780.602 2840.14 794.886C2862.88 801.201 2886.32 794.153 2908.78 788.689C2939.2 781.291 2950.35 791.474 2979.33 797.269C3084.37 818.276 3212.84 800.756 3311.08 760.567C3365.38 738.355 3394.3 713.378 3457.89 713.378C3509.64 713.378 3561.68 723.561 3603.75 756.277C3650.48 792.626 3713.82 801.086 3762 764.38C3794.72 739.446 3834.12 669.124 3818.24 627.58C3808.78 602.829 3835.02 613.069 3850.65 609.944C3865.31 607.013 3815.08 599.624 3805.85 611.374C3760.93 668.546 3801.58 694.908 3859.23 696.218C3881.15 696.716 3900.18 698.267 3921.2 705.275C3950.18 714.936 3941.05 746.381 3964.57 759.613C4000.75 779.96 4085.13 778.654 4125.21 771.53C4172.03 763.205 4213.55 747.377 4255.81 726.247C4301.94 703.18 4348.59 728.454 4393.09 747.697C4489.38 789.337 4614.07 760.555 4710.54 739.117C4761.23 727.852 4806.69 715.645 4856.39 739.117C4903.97 761.582 4958.41 764.856 5010.83 764.856C5070.21 764.856 5117.79 754.121 5154.78 704.798C5191.25 656.178 5236.71 656.096 5293.49 644.739C5338 635.838 5398.71 626.749 5431.24 593.261C5462.03 561.568 5447.29 497.765 5461.75 456.461C5486.55 385.594 5584.56 275.62 5506.55 200.497C5468.71 164.056 5401.93 217.886 5397.4 258.649C5391.71 309.816 5387.52 339.176 5410.27 387.346C5452.1 475.938 5532 695.5 5524 762C5524 762 5522.5 806 5515.5 804C5508.5 802 5492 784 5504 778C5516 772 5536.5 775.5 5542.5 780.5C5548.5 785.5 5522.51 803.81 5515.5 822.5" stroke="#FB6000" stroke-linecap="round" stroke-linejoin="round"/>
</svg>
