<?xml version="1.0" encoding="UTF-8" standalone="no"?>
<!DOCTYPE svg PUBLIC "-//W3C//DTD SVG 1.1//EN" "http://www.w3.org/Graphics/SVG/1.1/DTD/svg11.dtd">
<svg width="100%" height="100%" viewBox="0 0 1920 1080" version="1.1" xmlns="http://www.w3.org/2000/svg" xmlns:xlink="http://www.w3.org/1999/xlink" xml:space="preserve" xmlns:serif="http://www.serif.com/" style="fill-rule:evenodd;clip-rule:evenodd;stroke-linejoin:round;stroke-miterlimit:2;">
    <g transform="matrix(-1,-1.22465e-16,1.22465e-16,-1,1947,1124.27)">
        <path d="M1218.93,862.53C1403.73,946.262 1643.99,964.238 1800.05,939.277C1817.52,936.485 1836.03,932.045 1853.88,925.827C1871.71,919.617 1888.89,911.633 1903.74,901.743C1912.34,896.014 1921.47,889.529 1930.28,882.646C1939.07,875.771 1947.56,868.499 1954.89,861.182C1962.53,853.551 1991.42,808.926 2014.73,766.229C2019.36,757.745 2023.78,749.341 2027.76,741.316C2033.85,729.043 2038.93,717.657 2042.24,708.243C2046.13,697.18 2047.6,688.867 2045.29,685.073C2045.22,684.969 2045.26,684.831 2045.36,684.767C2045.46,684.702 2045.6,684.735 2045.67,684.839C2048.06,688.677 2046.76,697.173 2042.9,708.472C2039.66,717.94 2034.65,729.396 2028.62,741.739C2024.68,749.8 2020.3,758.24 2015.69,766.75C1992.44,809.654 1963.44,854.41 1955.78,862.077C1948.43,869.44 1939.92,876.762 1931.09,883.682C1922.26,890.598 1913.11,897.112 1904.49,902.869C1889.56,912.827 1872.28,920.872 1854.34,927.129C1836.41,933.383 1817.82,937.851 1800.27,940.664C1643.14,965.814 1400.75,947.502 1215.31,862.496C1166.97,861.957 1117.72,857.791 1068.62,850.366C829.565,814.219 594.049,700.861 485.204,553.125C448.922,562.925 410.185,561.529 373.132,544.431C329.659,524.372 290.716,489.709 261.719,448.141C232.692,406.529 213.634,358 209.96,310.289C208.788,295.081 213.084,240.282 211.684,207.207C211.38,200.034 210.809,193.89 209.85,189.411C209.215,186.449 208.441,184.239 207.419,183.014C207.35,183.135 207.274,183.283 207.203,183.403C205.261,186.671 202.483,197.407 202.433,197.53C200.515,202.32 193.421,224.34 186.342,239.64C183.593,245.582 180.832,250.519 178.381,253.102C177.037,254.519 175.733,255.249 174.583,255.248C174.366,255.248 173.822,255.153 173.802,254.451C173.799,254.336 173.824,254.085 173.895,253.71C174.076,252.753 174.555,250.764 175.295,247.979C178.208,237.016 185.177,213.617 193.723,192.452C200.183,176.454 207.559,161.736 214.754,154.548C215.756,153.546 219.809,150.444 223.214,149.429C225.075,148.874 226.755,148.966 227.818,150.028C229.903,152.112 231.435,157.475 232.618,164.652C235.369,181.335 236.564,207.99 240.726,224.506C242.03,229.682 243.623,233.836 245.659,236.338C246.89,237.851 248.272,238.748 249.911,238.77C250.27,238.77 250.561,239.062 250.561,239.421C250.561,239.78 250.27,240.072 249.911,240.072C247.883,240.099 246.089,239.114 244.538,237.263C242.363,234.667 240.664,230.302 239.291,224.868C235.109,208.32 233.939,181.606 231.194,164.886C230.082,158.112 228.773,153.008 226.807,151.04C226.422,150.655 225.898,150.515 225.305,150.514C224.433,150.513 223.429,150.806 222.406,151.238C219.554,152.443 216.58,154.746 215.766,155.56C208.673,162.659 201.446,177.21 195.085,193.001C186.583,214.107 179.657,237.437 176.762,248.368C176.149,250.685 175.717,252.44 175.493,253.492C176.056,253.219 176.644,252.716 177.273,252.052C179.644,249.548 182.287,244.751 184.945,238.994C191.998,223.715 199.058,201.727 200.969,196.944C201.012,196.835 203.191,188.45 205.048,184.178C205.604,182.898 206.171,181.964 206.626,181.591C206.945,181.329 207.264,181.243 207.545,181.262C207.805,181.279 208.06,181.38 208.289,181.61C209.256,182.576 210.09,184.243 210.762,186.521C212.126,191.143 212.899,198.387 213.268,207.14C214.662,240.199 210.353,294.969 211.521,310.169C215.166,357.616 234.122,405.875 262.98,447.261C291.812,488.609 330.531,523.101 373.765,543.06C410.287,559.92 448.456,561.378 484.259,551.838C481.689,548.322 479.176,544.763 476.736,541.186C452.339,505.389 436.979,462.74 434.02,419.847C431.039,376.644 440.636,333.196 466.232,296.239C486.867,266.443 525.167,247.431 561.122,246.808C597.366,246.179 631.23,264.182 642.313,308.548C659.885,378.812 627.618,454 573.409,503.497C548.326,526.4 518.552,543.798 486.865,552.668C595.636,699.88 830.507,812.742 1068.86,848.791C1116.68,856.025 1164.65,860.167 1211.79,860.871C1205.27,857.841 1198.8,854.717 1192.4,851.507C1060.75,785.406 962.533,683.303 952.726,536.263C940.269,349.492 1119.02,245.557 1308.05,235.227C1490.86,225.236 1683.14,302.816 1721.07,477.292C1727.73,507.933 1728.41,540.789 1723.11,572.611C1717.82,604.417 1706.55,635.188 1689.33,661.683C1595.98,805.301 1415.27,863.985 1218.93,862.53ZM207.492,182.893C207.606,182.917 207.69,182.901 207.643,182.813C207.61,182.751 207.556,182.797 207.492,182.893ZM1215.4,860.918C1412.55,863.132 1594.37,804.896 1688.02,660.831C1705.12,634.515 1716.31,603.948 1721.57,572.355C1726.84,540.729 1726.17,508.075 1719.55,477.622C1681.78,303.868 1490.19,226.812 1308.13,236.751C1119.97,247.024 941.831,350.244 954.22,536.163C963.982,682.657 1061.91,784.324 1193.07,850.191C1200.41,853.877 1207.85,857.451 1215.4,860.918ZM485.923,551.387C517.604,542.626 547.366,525.277 572.417,502.411C626.245,453.279 658.353,378.658 640.919,308.897C630.017,265.323 596.748,247.654 561.148,248.284C525.652,248.913 487.84,267.679 467.479,297.102C442.1,333.773 432.607,376.882 435.579,419.739C438.534,462.354 453.813,504.722 478.066,540.279C480.605,544.003 483.225,547.707 485.923,551.387Z" style="fill:rgb(251,96,0);"/>
    </g>
</svg>
