<svg width="25" height="25" viewBox="0 0 25 25" fill="none" xmlns="http://www.w3.org/2000/svg">
<path d="M9.70588 16.1953V11.3213C11.427 11.2576 12.7124 10.9815 13.5621 10.4931C14.4336 9.98338 14.8693 9.13389 14.8693 7.9446V7.49861C14.8693 6.6916 14.6187 6.07572 14.1176 5.65097C13.6383 5.22622 13.0065 5.01385 12.2222 5.01385C11.3725 5.01385 10.6645 5.2687 10.098 5.77839C9.55338 6.28809 9.18301 6.93583 8.98693 7.72161L5 6.09695C5.19608 5.45983 5.4793 4.84395 5.84967 4.24931C6.22004 3.63343 6.69935 3.09187 7.28758 2.62465C7.8976 2.1362 8.61656 1.74331 9.44444 1.44598C10.2941 1.14866 11.2745 1 12.3856 1C13.5185 1 14.5534 1.15928 15.4902 1.47784C16.427 1.7964 17.2331 2.24238 17.9085 2.81579C18.5839 3.3892 19.0959 4.07941 19.4444 4.88643C19.8148 5.69344 20 6.58541 20 7.56233C20 8.45429 19.8475 9.26131 19.5425 9.98338C19.2375 10.7054 18.8235 11.3426 18.3007 11.8947C17.7778 12.4257 17.1678 12.861 16.4706 13.2008C15.7734 13.5406 15.0436 13.7742 14.281 13.9017V16.1953H9.70588ZM12.0588 24C11.0131 24 10.2614 23.7664 9.80392 23.2992C9.36819 22.8319 9.15033 22.2585 9.15033 21.5789V20.8144C9.15033 20.1348 9.36819 19.5614 9.80392 19.0942C10.2614 18.627 11.0131 18.3934 12.0588 18.3934C13.1046 18.3934 13.8453 18.627 14.281 19.0942C14.7386 19.5614 14.9673 20.1348 14.9673 20.8144V21.5789C14.9673 22.2585 14.7386 22.8319 14.281 23.2992C13.8453 23.7664 13.1046 24 12.0588 24Z" fill="white"/>
</svg>
