<svg width="22" height="22" viewBox="0 0 22 22" fill="none" xmlns="http://www.w3.org/2000/svg">
<g clip-path="url(#clip0)">
<path d="M15.4932 0.628601H5.75047C2.57961 0.628601 0 3.20821 0 6.37907V16.122C0 19.2927 2.57961 21.8723 5.75047 21.8723H15.4934C18.6641 21.8723 21.2437 19.2927 21.2437 16.122V6.37907C21.2437 3.20821 18.6641 0.628601 15.4932 0.628601V0.628601ZM19.9983 16.122C19.9983 18.606 17.9774 20.6269 15.4932 20.6269H5.75047C3.26633 20.6269 1.2454 18.606 1.2454 16.122V6.37907C1.2454 3.89493 3.26633 1.874 5.75047 1.874H15.4934C17.9774 1.874 19.9983 3.89493 19.9983 6.37907V16.122Z" fill="black"/>
<path d="M10.6219 5.44177C7.41894 5.44177 4.81323 8.04748 4.81323 11.2504C4.81323 14.4534 7.41894 17.0591 10.6219 17.0591C13.8248 17.0591 16.4305 14.4534 16.4305 11.2504C16.4305 8.04748 13.8248 5.44177 10.6219 5.44177V5.44177ZM10.6219 15.8137C8.10582 15.8137 6.05863 13.7667 6.05863 11.2504C6.05863 8.73436 8.10582 6.68717 10.6219 6.68717C13.1381 6.68717 15.1852 8.73436 15.1852 11.2504C15.1852 13.7667 13.1381 15.8137 10.6219 15.8137V15.8137Z" fill="black"/>
<path d="M16.5694 3.37891C15.6229 3.37891 14.853 4.14893 14.853 5.0953C14.853 6.04182 15.6229 6.81185 16.5694 6.81185C17.5159 6.81185 18.286 6.04182 18.286 5.0953C18.286 4.14877 17.5159 3.37891 16.5694 3.37891ZM16.5694 5.56629C16.3098 5.56629 16.0984 5.35494 16.0984 5.0953C16.0984 4.83549 16.3098 4.6243 16.5694 4.6243C16.8292 4.6243 17.0406 4.83549 17.0406 5.0953C17.0406 5.35494 16.8292 5.56629 16.5694 5.56629Z" fill="black"/>
</g>
<defs>
<clipPath id="clip0">
<rect width="21.2437" height="21.2437" fill="white" transform="translate(0 0.628601)"/>
</clipPath>
</defs>
</svg>
