<svg width="25" height="24" viewBox="0 0 25 24" fill="none" xmlns="http://www.w3.org/2000/svg">
<path d="M24.4991 14.2101V23.1775H19.3004V14.8107C19.3004 12.7089 18.5485 11.2745 16.6667 11.2745C15.2302 11.2745 14.3753 12.2412 13.9992 13.1763C13.8621 13.5106 13.8268 13.9759 13.8268 14.4438V23.1775H8.62632C8.62632 23.1775 8.69636 9.00688 8.62632 7.53869H13.8263V9.75543C13.8157 9.77201 13.802 9.78989 13.7921 9.80596H13.8263V9.75543C14.5172 8.69136 15.751 7.17129 18.5126 7.17129C21.9342 7.17124 24.4991 9.40648 24.4991 14.2101ZM3.18639 0C1.40732 0 0.243652 1.16693 0.243652 2.70149C0.243652 4.20261 1.37365 5.40496 3.11737 5.40496H3.15211C4.96564 5.40496 6.0935 4.20284 6.0935 2.70149C6.05932 1.16693 4.96564 0 3.18639 0ZM0.552515 23.1775H5.75102V7.53869H0.552515V23.1775Z" fill="black"/>
</svg>
