<svg width="26" height="20" viewBox="0 0 26 20" fill="none" xmlns="http://www.w3.org/2000/svg">
<path d="M25.831 17.5634V2.1369L17.1597 9.83389L25.831 17.5634Z" fill="black"/>
<path d="M14.9186 10.0937L25.4736 0.740416C25.1488 0.350695 24.6941 0.0908813 24.142 0.0908813H2.18775C1.66812 0.0908813 1.18097 0.350695 0.856201 0.740416L11.4111 10.0937C12.3854 11.068 13.9443 11.068 14.9186 10.0937Z" fill="black"/>
<path d="M15.828 11.0356C15.081 11.7501 14.1067 12.1073 13.1649 12.1073C12.2231 12.1073 11.2488 11.7501 10.5018 11.0356L10.1446 10.7108L0.726318 19.0898C1.01861 19.577 1.57071 19.9342 2.15529 19.9342H24.1096C24.7266 19.9342 25.2463 19.6094 25.5385 19.0898L16.1852 10.7108L15.828 11.0356Z" fill="black"/>
<path d="M0.499023 2.1369V17.5634L9.17031 9.83389L0.499023 2.1369Z" fill="black"/>
</svg>
